<svg width="278" height="278" viewBox="0 0 278 278" fill="none" xmlns="http://www.w3.org/2000/svg">
<mask id="mask0_16_168" style="mask-type:luminance" maskUnits="userSpaceOnUse" x="0" y="0" width="278" height="278">
<path d="M0.260498 0.260406H277.261V277.26H0.260498V0.260406Z" fill="white"/>
</mask>
<g mask="url(#mask0_16_168)">
<path d="M0.260498 0.260406H277.261V277.26H0.260498V0.260406Z" fill="#231F20"/>
<path d="M219.854 111.385L220.349 111.312L220.427 111.839L220.547 111.802L230.646 140.073L228.833 140.719L221.719 120.818L216.875 121.521L231.141 220.01H251.266L251.073 219.875L258.886 208.484L251.167 203.812L238.531 210.573L237.62 208.88L249.25 202.646L238.115 195.901L244.682 183.672L232.224 170.266L233.636 168.953L238.63 174.333L245.375 163.589L234.557 152.135L235.958 150.812L247.802 163.359L239.984 175.786L247.031 183.375L240.672 195.203L261.62 207.896L253.318 220.01H273.672L243.557 135.75C243.557 135.745 243.557 135.74 243.552 135.734L196.906 5.20311L123.323 31.4948L139.5 76.7656L148.495 80.4583L144.396 90.4531L149.87 105.766L163.604 103.771L157.537 86.7708L159.344 86.125L165.552 103.49L180.094 101.38L172.906 81.276L174.724 80.6302L182.037 101.104L196.589 98.9948L188.287 75.7812L190.099 75.1302L198.526 98.7187L205.156 97.7552L219.854 111.385ZM277.261 0.260406V277.26H0.260498V0.260406H277.261ZM275.333 275.333V221.932H208.49L203.557 230.755H224.276L228.156 275.333H275.333ZM275.333 218.943V186.052H263.583L275.333 218.943ZM275.333 184.13V176.271H260.083L262.896 184.13H275.333ZM275.333 174.349V166.49H256.589L259.401 174.349H275.333ZM275.333 164.562V156.703H253.094L255.901 164.562H275.333ZM275.333 154.781V146.927H251.865V145H275.333V137.141H251.865V135.214H275.333V127.359H251.865V125.432H275.333V117.573H251.865V115.646H275.333V107.792H251.865V105.865H275.333V77.7083H258.276V96.0521H245.417C245.193 111.208 245.005 133.432 245.38 135.13L252.406 154.781H275.333ZM275.333 75.7812V2.18749H2.18758V117.682H27.5313V130.792H43.7084L76.4897 50.9062L137.104 75.7812L120.859 30.3333L198.073 2.73957L243.271 129.214C243.162 119.479 243.406 101.734 243.505 95.0729L243.521 94.125H256.344V75.7812H275.333ZM229.193 220.01L214.969 121.797L115.74 136.167L127.88 220.01H148.589L148.047 216.229L147.151 210.109L160.167 208.224L162.651 201.5L156.188 202.375L157.479 179.323L159.401 179.432L158.24 200.156L165.573 199.161L162.339 207.911L204.495 201.797L211.172 193.672L214.333 196.187L217.766 189.089L219.5 189.932L215.016 199.198L211.453 196.359L206.026 202.979L208.745 220.01H229.193ZM219.542 119.187L218.719 113.495L109.787 129.276L110.609 134.964L110.813 134.937L110.792 134.932L113.953 134.479L113.99 134.474L114.511 134.401L215.833 119.729L219.542 119.187ZM110.552 127.214L217.406 111.74L204.526 99.7917L125.828 111.187L123.604 111.51L119.511 112.099L110.552 127.214ZM217.224 275.333L203.813 240.885L166.948 249.865L190.802 221.932H90.3386L81.2188 237.318L98.6928 242.073L72.0678 275.333H217.224ZM206.802 220.01L204.203 203.786L173.625 208.219L149.333 211.74L150.537 220.01H206.802ZM147.922 106.042L143.297 93.1146L137.365 107.568L147.922 106.042ZM135.151 107.891L145.984 81.5052L77.5418 53.4219L9.17716 220.01H46.4949L48.9532 212.406L29.7345 210.62L26.5313 195.75L28.4115 195.344L31.3178 208.833L38.2865 209.484L41.8699 202.271L43.5938 203.13L40.3438 209.672L51.5209 210.714L48.5209 220.01H89.1511L116.339 153.745L113.833 136.443L108.984 137.146L108.526 134.01L101.484 131.125L107.167 117.292L112.823 119.615L118.323 110.328L119.833 110.115L111.511 106.698L117.188 92.8646L131.016 98.5469L126.677 109.12L135.151 107.891ZM124.458 109.443L128.505 99.5937L118.24 95.3802L114.026 105.646L123.583 109.562L124.458 109.443ZM125.932 220.01L116.88 157.49L91.224 220.01H125.932ZM108.099 127.568L111.823 121.292L108.214 119.807L104 130.073L108.208 131.797L107.604 127.641L108.099 127.568ZM63.4272 275.115L72.448 252.568L42.7449 242.99L64.7449 221.932H2.18758V275.333H63.974L63.4272 275.115ZM21.1615 185.734L42.9167 132.714H25.6042V119.609H2.18758V220.01H7.09383L19.2397 190.427V174.661H21.1615V185.734Z" fill="#231F20"/>
</g>
<path d="M275.333 221.932V275.333H228.156L224.276 230.755H203.557L208.489 221.932H275.333Z" fill="#D65B43"/>
<path d="M72.4479 252.568L63.4271 275.115L63.974 275.333H2.1875V221.932H64.7448L42.7448 242.99L72.4479 252.568Z" fill="#D65B43"/>
<path d="M203.812 240.885L217.224 275.333H72.0676L98.6926 242.073L81.2187 237.318L90.3385 221.932H190.802L166.948 249.865L203.812 240.885Z" fill="#D65B43"/>
<path d="M275.333 186.052V218.943L263.583 186.052H275.333Z" fill="#F09669"/>
<path d="M275.333 176.271V184.13H262.896L260.083 176.271H275.333Z" fill="#F09669"/>
<path d="M275.333 166.49V174.349H259.401L256.588 166.49H275.333Z" fill="#F09669"/>
<path d="M275.333 156.703V164.563H255.901L253.094 156.703H275.333Z" fill="#F09669"/>
<path d="M275.333 146.927V154.781H252.406L245.38 135.13C245.005 133.432 245.193 111.208 245.417 96.0521H258.276V77.7083H275.333V105.865H251.865V107.792H275.333V115.646H251.865V117.573H275.333V125.432H251.865V127.359H275.333V135.214H251.865V137.141H275.333V145H251.865V146.927H275.333Z" fill="#F09669"/>
<path d="M217.406 111.74L110.552 127.214L119.51 112.099L123.604 111.51L125.828 111.187L204.526 99.7917L217.406 111.74Z" fill="#F09669"/>
<path d="M218.719 113.495L219.542 119.188L215.833 119.729L114.51 134.401L113.99 134.474L113.953 134.479L110.792 134.932L110.812 134.938L110.609 134.964L109.786 129.276L218.719 113.495Z" fill="#F09669"/>
<path d="M111.823 121.292L108.099 127.568L107.604 127.641L108.208 131.797L104 130.073L108.214 119.807L111.823 121.292Z" fill="#F2CF4E"/>
<path d="M108.458 148.448L104.24 158.714L93.9739 154.5L98.1926 144.24L108.458 148.448Z" fill="#F2CF4E"/>
<path d="M83.9531 178.938L88.1667 168.672L98.4323 172.88L94.2188 183.146L83.9531 178.938Z" fill="#F2CF4E"/>
<path d="M88.401 197.307L84.1926 207.573L73.927 203.354L78.1405 193.089L88.401 197.307Z" fill="#F2CF4E"/>
<path d="M63.4688 170.531L67.6823 160.266L77.9479 164.484L73.7344 174.75L63.4688 170.531Z" fill="#F2CF4E"/>
<path d="M87.974 140.047L83.7656 150.312L73.5 146.094L77.7083 135.833L87.974 140.047Z" fill="#F2CF4E"/>
<path d="M97.9999 115.62L93.7864 125.88L83.5208 121.667L87.7343 111.401L97.9999 115.62Z" fill="#F2CF4E"/>
<path d="M128.505 99.5938L124.458 109.443L123.583 109.563L114.026 105.646L118.24 95.3802L128.505 99.5938Z" fill="#F2CF4E"/>
<path d="M93.552 97.2448L97.7603 86.9792L108.026 91.1927L103.818 101.458L93.552 97.2448Z" fill="#F2CF4E"/>
<path d="M73.0676 88.8438L77.2812 78.5781L87.5468 82.7917L83.328 93.0573L73.0676 88.8438Z" fill="#F2CF4E"/>
<path d="M77.5208 107.214L73.3125 117.474L63.0469 113.266L67.2552 103L77.5208 107.214Z" fill="#F2CF4E"/>
<path d="M53.0156 137.703L57.2292 127.438L67.4948 131.651L63.2813 141.917L53.0156 137.703Z" fill="#F2CF4E"/>
<path d="M57.4688 156.073L53.2605 166.333L42.9949 162.12L47.2032 151.854L57.4688 156.073Z" fill="#F2CF4E"/>
<path d="M47.4479 180.5L43.2344 190.766L32.9688 186.547L37.1823 176.286L47.4479 180.5Z" fill="#F2CF4E"/>
<path d="M67.9272 188.901L63.7136 199.167L53.448 194.953L57.6615 184.693L67.9272 188.901Z" fill="#F2CF4E"/>
<path d="M204.203 203.786L206.802 220.01H150.536L149.333 211.74L173.625 208.219L204.203 203.786Z" fill="#F2CF4E"/>
<path d="M208.713 173.521L210.224 183.984L197.479 185.833L195.958 175.37C195.49 172.104 197.76 169.063 201.031 168.594L201.937 168.458C202.224 168.422 202.521 168.401 202.807 168.401C204.088 168.401 205.328 168.807 206.37 169.589C206.531 169.708 206.687 169.833 206.828 169.969C207.849 170.896 208.516 172.141 208.713 173.521Z" fill="#F2CF4E"/>
<path d="M178.938 177.833L180.448 188.297L167.708 190.141L166.188 179.682C165.714 176.422 167.984 173.38 171.245 172.901L172.172 172.771C172.271 172.76 172.37 172.74 172.516 172.734C172.688 172.719 172.859 172.714 173.026 172.714C175.969 172.714 178.51 174.88 178.938 177.833Z" fill="#F2CF4E"/>
<path d="M149.156 182.151L150.677 192.609L137.922 194.458L136.412 183.995C135.938 180.729 138.214 177.693 141.474 177.219L142.38 177.083C142.672 177.047 142.964 177.026 143.25 177.026C144.537 177.026 145.781 177.432 146.828 178.214C148.099 179.172 148.932 180.568 149.156 182.151Z" fill="#F2CF4E"/>
<path d="M144.87 152.526L146.38 162.99L133.641 164.839L132.125 154.375C131.651 151.115 133.917 148.073 137.182 147.599L138.088 147.469C138.271 147.443 138.448 147.422 138.63 147.411C138.677 147.411 138.713 147.411 138.76 147.411C138.896 147.406 139.036 147.406 139.177 147.411C139.224 147.411 139.276 147.411 139.323 147.417C139.484 147.432 139.641 147.448 139.792 147.464C139.818 147.469 139.838 147.469 139.87 147.474C140.052 147.5 140.234 147.542 140.417 147.583C140.432 147.589 140.448 147.594 140.463 147.599C140.62 147.641 140.776 147.693 140.927 147.74C140.974 147.755 141.026 147.781 141.068 147.797C141.193 147.839 141.312 147.891 141.432 147.943C141.484 147.974 141.536 147.995 141.588 148.021C141.708 148.078 141.823 148.141 141.932 148.203C141.979 148.234 142.026 148.26 142.073 148.286C142.229 148.38 142.38 148.484 142.531 148.594C143.812 149.552 144.641 150.948 144.87 152.526Z" fill="#F2CF4E"/>
<path d="M174.646 148.219L176.162 158.677L163.412 160.526L161.896 150.062C161.776 149.229 161.839 148.401 162.057 147.62C162.073 147.557 162.078 147.5 162.099 147.448C162.104 147.411 162.12 147.385 162.125 147.359C162.386 146.562 162.818 145.812 163.401 145.172C164.344 144.141 165.578 143.49 166.964 143.286L167.87 143.151C168.042 143.13 168.219 143.115 168.401 143.104C168.453 143.099 168.511 143.099 168.563 143.099C168.682 143.094 168.802 143.094 168.927 143.099C168.99 143.099 169.057 143.104 169.13 143.109C169.25 143.115 169.38 143.13 169.5 143.141C169.557 143.151 169.604 143.151 169.662 143.161C169.833 143.193 170.005 143.224 170.177 143.271C170.219 143.281 170.266 143.292 170.313 143.307C170.438 143.344 170.563 143.38 170.693 143.422C170.755 143.448 170.813 143.469 170.87 143.49C170.979 143.536 171.089 143.578 171.198 143.63C171.255 143.656 171.318 143.682 171.375 143.714C171.484 143.766 171.594 143.828 171.698 143.891C171.75 143.917 171.807 143.943 171.854 143.974C172.005 144.073 172.162 144.172 172.302 144.281C173.583 145.234 174.417 146.63 174.646 148.219Z" fill="#F2CF4E"/>
<path d="M204.422 143.906L205.937 154.365L193.193 156.208L191.672 145.75C191.557 144.958 191.604 144.177 191.786 143.438C191.786 143.432 191.792 143.422 191.792 143.417C191.818 143.323 191.849 143.234 191.875 143.141C191.896 143.089 191.906 143.031 191.922 142.974C191.937 142.937 191.953 142.901 191.963 142.865C192.312 141.896 192.911 141.021 193.708 140.339C193.734 140.318 193.766 140.302 193.786 140.276C194.125 140 194.49 139.755 194.885 139.557C195.474 139.26 196.094 139.063 196.734 138.969L197.646 138.844C197.823 138.813 198 138.797 198.177 138.786C198.224 138.786 198.281 138.786 198.333 138.781C198.453 138.781 198.578 138.781 198.703 138.786C198.771 138.786 198.833 138.786 198.896 138.792C199.031 138.802 199.161 138.813 199.292 138.833C199.338 138.839 199.385 138.844 199.432 138.849C199.604 138.875 199.781 138.917 199.953 138.953C199.995 138.964 200.031 138.979 200.078 138.995C200.203 139.026 200.338 139.062 200.469 139.115C200.526 139.13 200.588 139.151 200.641 139.182C200.75 139.219 200.865 139.271 200.974 139.313C201.031 139.344 201.088 139.37 201.151 139.401C201.26 139.458 201.365 139.516 201.479 139.578C201.526 139.609 201.578 139.635 201.625 139.661C201.781 139.755 201.932 139.865 202.083 139.969C203.359 140.927 204.193 142.328 204.422 143.906Z" fill="#F2CF4E"/>
<path d="M275.333 2.1875V75.7813H256.344V94.125H243.521L243.505 95.0729C243.406 101.734 243.162 119.479 243.271 129.214L198.073 2.73958V2.1875H275.333ZM252.745 46.5156L237.787 12.9219L236.031 13.7083L250.99 47.2969L252.745 46.5156ZM246.75 74.8958L228.854 29.6667L227.068 30.375L244.964 75.6042L246.75 74.8958Z" fill="#659687"/>
<path d="M243.557 135.75L273.672 220.01H253.318L261.62 207.896L240.672 195.203L247.031 183.375L239.984 175.786L247.802 163.359L235.958 150.813L234.557 152.135L245.375 163.589L238.63 174.333L233.636 168.953L232.224 170.266L244.682 183.672L238.115 195.901L249.25 202.646L237.62 208.88L238.531 210.573L251.167 203.813L258.886 208.484L251.073 219.875L251.266 220.01H231.141L216.875 121.521L221.719 120.818L228.833 140.719L230.646 140.073L220.547 111.802L220.427 111.839L220.349 111.313L219.854 111.385L205.156 97.7552L198.526 98.7188L190.099 75.1302L188.287 75.7813L196.589 98.9948L182.037 101.104L174.724 80.6302L172.906 81.276L180.094 101.38L165.552 103.49L159.344 86.125L157.537 86.7708L163.604 103.771L149.87 105.766L144.396 90.4531L148.495 80.4583L139.5 76.7656L123.323 31.4948L196.906 5.20312L243.552 135.734C243.557 135.74 243.557 135.745 243.557 135.75ZM215.583 97.9115L205.479 69.6354L203.667 70.2865L213.766 98.5625L215.583 97.9115ZM200.516 55.75L190.412 27.4792L188.599 28.125L198.703 56.3958L200.516 55.75ZM185.135 61.2448L175.037 32.974L173.219 33.6146L183.323 61.8906L185.135 61.2448ZM169.76 66.7396L159.656 38.4635L157.844 39.1094L167.948 67.3854L169.76 66.7396ZM154.38 72.2344L144.281 43.9583L142.464 44.6094L152.573 72.8854L154.38 72.2344Z" fill="#F2CF4E"/>
<path d="M237.786 12.9219L252.745 46.5156L250.99 47.2969L236.031 13.7083L237.786 12.9219Z" fill="#231F20"/>
<path d="M227.068 30.3698L228.854 29.6667L246.75 74.8958L244.964 75.6042L227.068 30.3698Z" fill="#231F20"/>
<path d="M214.969 121.797L229.193 220.01H208.745L206.026 202.979L211.453 196.359L215.016 199.198L219.5 189.932L217.766 189.089L214.333 196.188L211.172 193.672L204.495 201.797L162.338 207.911L165.573 199.161L158.24 200.156L159.401 179.432L157.479 179.323L156.187 202.375L162.651 201.5L160.167 208.224L147.151 210.109L148.047 216.229L148.588 220.01H127.88L115.74 136.167L214.969 121.797ZM212.401 185.609L210.62 173.245C209.995 168.932 205.974 165.927 201.661 166.552L200.75 166.688C196.437 167.313 193.427 171.328 194.052 175.646L195.849 188.016L212.401 185.609ZM208.12 155.995L206.323 143.63C206.021 141.542 204.922 139.693 203.234 138.427C201.536 137.167 199.463 136.63 197.37 136.938L196.463 137.063C195.615 137.188 194.792 137.448 194.016 137.839C193.453 138.125 192.932 138.479 192.458 138.875C190.427 140.604 189.375 143.292 189.766 146.021L191.562 158.396L208.12 155.995ZM182.63 189.927L180.844 177.563C180.245 173.422 176.516 170.464 172.401 170.813C172.219 170.818 172.036 170.844 171.88 170.87L170.969 171C166.661 171.625 163.656 175.646 164.281 179.958L166.078 192.328L182.63 189.927ZM178.344 160.307L176.552 147.938C176.25 145.849 175.151 144 173.458 142.74C171.766 141.474 169.682 140.948 167.594 141.245L166.687 141.38C164.88 141.646 163.208 142.531 161.984 143.875C161.786 144.089 161.594 144.318 161.422 144.552C160.208 146.214 159.693 148.271 159.99 150.339L161.786 162.708L178.344 160.307ZM152.859 194.24L151.062 181.87C150.766 179.781 149.667 177.938 147.979 176.677C146.281 175.406 144.198 174.88 142.104 175.177L141.198 175.313C136.88 175.938 133.885 179.953 134.505 184.271L136.297 196.641L152.859 194.24ZM148.568 164.62L146.776 152.25C146.479 150.161 145.375 148.318 143.682 147.052C141.99 145.792 139.901 145.26 137.812 145.563L136.911 145.698C132.594 146.318 129.588 150.339 130.219 154.656L132.01 167.021L148.568 164.62Z" fill="#D65B43"/>
<path d="M205.479 69.6354L215.583 97.9114L213.765 98.5625L203.667 70.2864L205.479 69.6354Z" fill="#231F20"/>
<path d="M210.62 173.245L212.401 185.609L195.849 188.016L194.052 175.646C193.427 171.328 196.438 167.313 200.75 166.688L201.661 166.552C205.974 165.927 209.995 168.932 210.62 173.245ZM210.224 183.984L208.714 173.521C208.516 172.141 207.849 170.896 206.828 169.969C206.688 169.833 206.531 169.708 206.37 169.589C205.328 168.807 204.089 168.401 202.807 168.401C202.521 168.401 202.224 168.422 201.938 168.458L201.031 168.594C197.76 169.063 195.49 172.104 195.958 175.37L197.479 185.833L210.224 183.984Z" fill="#231F20"/>
<path d="M206.323 143.63L208.12 155.995L191.562 158.396L189.766 146.021C189.375 143.292 190.427 140.604 192.458 138.875C192.932 138.479 193.448 138.125 194.016 137.839C194.792 137.448 195.615 137.188 196.463 137.063L197.37 136.938C199.463 136.63 201.536 137.167 203.234 138.427C204.922 139.693 206.021 141.542 206.323 143.63ZM205.937 154.365L204.422 143.906C204.193 142.328 203.359 140.927 202.083 139.969C201.932 139.865 201.781 139.755 201.625 139.661C201.578 139.635 201.526 139.609 201.479 139.578C201.365 139.516 201.26 139.458 201.151 139.401C201.088 139.37 201.031 139.344 200.974 139.313C200.865 139.271 200.75 139.219 200.641 139.182C200.588 139.151 200.526 139.13 200.469 139.115C200.338 139.063 200.203 139.026 200.078 138.995C200.031 138.979 199.995 138.964 199.953 138.953C199.781 138.917 199.604 138.875 199.432 138.849C199.385 138.844 199.338 138.839 199.292 138.833C199.161 138.813 199.031 138.802 198.896 138.792C198.833 138.786 198.771 138.786 198.703 138.786C198.578 138.781 198.453 138.781 198.333 138.781C198.281 138.786 198.224 138.786 198.177 138.786C198 138.797 197.823 138.813 197.646 138.844L196.734 138.969C196.094 139.063 195.474 139.26 194.885 139.557C194.49 139.755 194.125 140 193.786 140.276C193.766 140.302 193.734 140.318 193.708 140.339C192.911 141.021 192.312 141.896 191.963 142.865C191.953 142.901 191.937 142.938 191.922 142.974C191.906 143.031 191.896 143.089 191.875 143.141C191.849 143.234 191.818 143.323 191.792 143.417C191.792 143.422 191.786 143.432 191.786 143.438C191.604 144.177 191.557 144.958 191.672 145.75L193.193 156.208L205.937 154.365Z" fill="#231F20"/>
<path d="M188.599 28.1198L190.406 27.474L200.51 55.7396L198.703 56.3906L188.599 28.1198Z" fill="#231F20"/>
<path d="M198.073 2.1875V2.73958L120.859 30.3333L137.104 75.7813L76.4896 50.9063L43.7083 130.792H27.5313V117.682H2.1875V2.1875H198.073ZM80.8802 35.1927L81.4479 33.3542L59.6615 26.6094L34.2969 98.4531L36.1094 99.0938L60.8542 28.9948L80.8802 35.1927ZM18.8594 96.1771L36.125 38.4948L34.2813 37.9479L17.0156 95.625L18.8594 96.1771Z" fill="#659687"/>
<path d="M175.036 32.974L185.135 61.2448L183.323 61.8906L173.219 33.6146L175.036 32.974Z" fill="#231F20"/>
<path d="M180.844 177.562L182.63 189.927L166.078 192.328L164.281 179.958C163.656 175.646 166.661 171.625 170.969 171L171.88 170.87C172.036 170.844 172.219 170.818 172.401 170.812C176.516 170.464 180.245 173.422 180.844 177.562ZM180.448 188.297L178.937 177.833C178.51 174.88 175.969 172.714 173.026 172.714C172.859 172.714 172.687 172.719 172.516 172.734C172.37 172.74 172.271 172.76 172.172 172.771L171.245 172.901C167.984 173.38 165.714 176.422 166.187 179.682L167.708 190.141L180.448 188.297Z" fill="#231F20"/>
<path d="M176.552 147.938L178.344 160.307L161.786 162.708L159.99 150.339C159.693 148.271 160.208 146.214 161.422 144.552C161.594 144.318 161.786 144.089 161.984 143.875C163.208 142.531 164.88 141.646 166.687 141.38L167.594 141.245C169.682 140.948 171.766 141.474 173.458 142.74C175.151 144 176.25 145.849 176.552 147.938ZM176.161 158.677L174.646 148.219C174.417 146.63 173.583 145.234 172.302 144.281C172.161 144.172 172.005 144.073 171.854 143.974C171.807 143.943 171.75 143.917 171.698 143.891C171.594 143.828 171.484 143.766 171.375 143.714C171.318 143.682 171.255 143.656 171.198 143.63C171.088 143.578 170.979 143.536 170.87 143.49C170.812 143.469 170.755 143.448 170.693 143.422C170.562 143.38 170.437 143.344 170.312 143.307C170.266 143.292 170.219 143.281 170.177 143.271C170.005 143.224 169.833 143.193 169.661 143.161C169.604 143.151 169.557 143.151 169.5 143.141C169.38 143.13 169.25 143.115 169.13 143.109C169.057 143.104 168.99 143.099 168.927 143.099C168.802 143.094 168.682 143.094 168.562 143.099C168.51 143.099 168.453 143.099 168.401 143.104C168.219 143.115 168.042 143.13 167.87 143.151L166.963 143.286C165.578 143.49 164.344 144.141 163.401 145.172C162.818 145.813 162.385 146.563 162.125 147.359C162.12 147.385 162.104 147.411 162.099 147.448C162.078 147.5 162.073 147.557 162.057 147.62C161.838 148.401 161.776 149.229 161.896 150.063L163.411 160.526L176.161 158.677Z" fill="#231F20"/>
<path d="M157.849 39.1146L159.661 38.4688L169.76 66.7448L167.953 67.3906L157.849 39.1146Z" fill="#231F20"/>
<path d="M144.281 43.9583L154.38 72.2344L152.573 72.8854L142.464 44.6094L144.281 43.9583Z" fill="#231F20"/>
<path d="M151.063 181.87L152.859 194.24L136.297 196.641L134.505 184.271C133.885 179.953 136.88 175.938 141.198 175.313L142.104 175.177C144.198 174.88 146.281 175.406 147.979 176.677C149.667 177.938 150.766 179.781 151.063 181.87ZM150.677 192.609L149.156 182.151C148.932 180.568 148.099 179.172 146.828 178.214C145.781 177.432 144.537 177.026 143.25 177.026C142.964 177.026 142.672 177.047 142.38 177.083L141.474 177.219C138.214 177.693 135.938 180.729 136.412 183.995L137.922 194.458L150.677 192.609Z" fill="#231F20"/>
<path d="M146.776 152.25L148.568 164.62L132.01 167.021L130.219 154.656C129.589 150.339 132.594 146.318 136.911 145.698L137.813 145.562C139.901 145.26 141.99 145.792 143.682 147.052C145.375 148.318 146.479 150.161 146.776 152.25ZM146.38 162.99L144.87 152.526C144.641 150.948 143.813 149.552 142.531 148.594C142.38 148.484 142.229 148.38 142.073 148.286C142.026 148.26 141.979 148.234 141.932 148.203C141.823 148.141 141.708 148.078 141.589 148.021C141.536 147.995 141.484 147.974 141.432 147.943C141.313 147.891 141.193 147.839 141.068 147.797C141.026 147.781 140.974 147.755 140.927 147.74C140.776 147.693 140.62 147.641 140.464 147.599C140.448 147.594 140.432 147.589 140.417 147.583C140.234 147.542 140.052 147.5 139.87 147.474C139.839 147.469 139.818 147.469 139.792 147.464C139.641 147.448 139.484 147.432 139.323 147.417C139.276 147.411 139.224 147.411 139.177 147.411C139.036 147.406 138.896 147.406 138.76 147.411C138.714 147.411 138.677 147.411 138.63 147.411C138.448 147.422 138.271 147.443 138.089 147.469L137.182 147.599C133.917 148.073 131.651 151.115 132.125 154.375L133.641 164.839L146.38 162.99Z" fill="#231F20"/>
<path d="M143.297 93.1146L147.922 106.042L137.365 107.568L143.297 93.1146Z" fill="#659687"/>
<path d="M145.984 81.5052L135.151 107.891L126.677 109.12L131.016 98.5469L117.187 92.8646L111.51 106.698L119.833 110.115L118.323 110.328L112.823 119.615L107.167 117.292L101.484 131.125L108.526 134.01L108.984 137.146L113.833 136.443L116.338 153.745L89.151 220.01H48.5208L51.5208 210.714L40.3437 209.672L43.5937 203.13L41.8697 202.271L38.2864 209.484L31.3176 208.833L28.4114 195.344L26.5312 195.75L29.7343 210.62L48.953 212.406L46.4947 220.01H9.177L77.5416 53.4219L145.984 81.5052ZM105.292 161.224L110.963 147.396L97.1353 141.724L91.4635 155.552L105.292 161.224ZM104.859 103.964L110.536 90.1354L96.7135 84.4635L91.0312 98.2917L104.859 103.964ZM95.2655 185.656L100.937 171.828L87.1093 166.151L81.4374 179.979L95.2655 185.656ZM94.8385 128.396L100.51 114.568L86.6822 108.896L81.0103 122.724L94.8385 128.396ZM85.2447 210.083L90.9166 196.255L77.0885 190.583L71.4166 204.406L85.2447 210.083ZM84.8124 152.818L90.4895 138.995L76.6614 133.318L70.9843 147.146L84.8124 152.818ZM84.3853 95.5573L90.0572 81.7344L76.2291 76.0573L70.5572 89.8854L84.3853 95.5573ZM74.7916 177.25L80.4635 163.422L66.6353 157.75L60.9635 171.578L74.7916 177.25ZM74.3593 119.99L80.0364 106.161L66.2083 100.49L60.5364 114.318L74.3593 119.99ZM64.7603 201.677L70.4322 187.849L56.6145 182.177L50.9322 196.005L64.7603 201.677ZM64.3333 144.417L70.0103 130.594L56.1822 124.917L50.5051 138.745L64.3333 144.417ZM54.3072 168.849L59.9843 155.021L46.1562 149.349L40.4791 163.172L54.3072 168.849ZM44.2864 193.271L49.9583 179.448L36.1301 173.771L30.4583 187.599L44.2864 193.271Z" fill="#F09669"/>
<path d="M116.88 157.49L125.932 220.01H91.2239L116.88 157.49Z" fill="#659687"/>
<path d="M110.964 147.396L105.292 161.224L91.4636 155.552L97.1355 141.724L110.964 147.396ZM104.24 158.714L108.458 148.448L98.1928 144.24L93.974 154.5L104.24 158.714Z" fill="#231F20"/>
<path d="M110.536 90.1354L104.859 103.964L91.0312 98.2917L96.7135 84.4635L110.536 90.1354ZM103.813 101.453L108.026 91.1875L97.7604 86.9792L93.5469 97.2448L103.813 101.453Z" fill="#231F20"/>
<path d="M100.938 171.828L95.2656 185.656L81.4375 179.979L87.1094 166.151L100.938 171.828ZM94.2188 183.141L98.4271 172.875L88.1615 168.667L83.9531 178.932L94.2188 183.141Z" fill="#231F20"/>
<path d="M100.51 114.568L94.8386 128.396L81.0105 122.724L86.6824 108.896L100.51 114.568ZM93.7865 125.88L98.0001 115.62L87.7345 111.401L83.5209 121.667L93.7865 125.88Z" fill="#231F20"/>
<path d="M90.9167 196.255L85.2449 210.083L71.4167 204.406L77.0886 190.583L90.9167 196.255ZM84.1928 207.573L88.4011 197.307L78.1407 193.089L73.9272 203.354L84.1928 207.573Z" fill="#231F20"/>
<path d="M90.4896 138.995L84.8125 152.818L70.9844 147.146L76.6615 133.318L90.4896 138.995ZM83.7656 150.312L87.974 140.047L77.7083 135.833L73.5 146.094L83.7656 150.312Z" fill="#231F20"/>
<path d="M90.0574 81.7344L84.3855 95.5573L70.5574 89.8854L76.2292 76.0573L90.0574 81.7344ZM83.3334 93.0469L87.547 82.7812L77.2813 78.5729L73.0678 88.8385L83.3334 93.0469Z" fill="#231F20"/>
<path d="M81.4479 33.3542L80.8802 35.1927L60.8542 28.9948L36.1094 99.0938L34.2969 98.4531L59.6615 26.6094L81.4479 33.3542Z" fill="#231F20"/>
<path d="M80.4636 163.422L74.7917 177.25L60.9636 171.578L66.6355 157.75L80.4636 163.422ZM73.7345 174.734L77.9532 164.469L67.6876 160.26L63.4688 170.526L73.7345 174.734Z" fill="#231F20"/>
<path d="M80.0364 106.161L74.3593 119.99L60.5364 114.318L66.2083 100.49L80.0364 106.161ZM73.3124 117.474L77.5208 107.214L67.2551 103L63.0468 113.266L73.3124 117.474Z" fill="#231F20"/>
<path d="M70.4324 187.849L64.7605 201.677L50.9324 196.005L56.6147 182.177L70.4324 187.849ZM63.7136 199.167L67.9272 188.901L57.6615 184.693L53.448 194.953L63.7136 199.167Z" fill="#231F20"/>
<path d="M70.0103 130.594L64.3333 144.417L50.5051 138.745L56.1822 124.917L70.0103 130.594ZM63.2812 141.906L67.4999 131.641L57.2343 127.432L53.0155 137.698L63.2812 141.906Z" fill="#231F20"/>
<path d="M59.9845 155.021L54.3074 168.849L40.4792 163.172L46.1563 149.349L59.9845 155.021ZM53.2605 166.333L57.4688 156.073L47.2032 151.854L42.9949 162.12L53.2605 166.333Z" fill="#231F20"/>
<path d="M49.9583 179.448L44.2864 193.271L30.4583 187.599L36.1301 173.771L49.9583 179.448ZM43.2343 190.766L47.4478 180.5L37.1822 176.286L32.9687 186.547L43.2343 190.766Z" fill="#231F20"/>
<path d="M42.9167 132.714L21.1615 185.734V174.661H19.2396V190.427L7.09375 220.01H2.1875V119.609H25.6042V132.714H42.9167ZM21.1615 168.734V152.932H19.2396V168.734H21.1615ZM21.1615 147.01V131.203H19.2396V147.01H21.1615ZM14.3854 190.458V174.661H12.4583V190.458H14.3854ZM14.3854 168.734V152.932H12.4583V168.734H14.3854ZM14.3854 147.01V131.203H12.4583V147.01H14.3854ZM7.60417 190.458V174.661H5.67708V190.458H7.60417ZM7.60417 168.734V152.932H5.67708V168.734H7.60417ZM7.60417 147.01V131.203H5.67708V147.01H7.60417Z" fill="#D65B43"/>
<path d="M36.125 38.4948L18.8594 96.1771L17.0156 95.625L34.2813 37.9479L36.125 38.4948Z" fill="#231F20"/>
<path d="M19.2395 152.932H21.1614V168.734H19.2395V152.932Z" fill="#231F20"/>
<path d="M19.2395 131.203H21.1614V147.01H19.2395V131.203Z" fill="#231F20"/>
<path d="M12.4583 174.661H14.3853V190.458H12.4583V174.661Z" fill="#231F20"/>
<path d="M12.4583 152.932H14.3853V168.734H12.4583V152.932Z" fill="#231F20"/>
<path d="M12.4583 131.203H14.3853V147.01H12.4583V131.203Z" fill="#231F20"/>
<path d="M5.677 174.661H7.60409V190.458H5.677V174.661Z" fill="#231F20"/>
<path d="M5.677 152.932H7.60409V168.734H5.677V152.932Z" fill="#231F20"/>
<path d="M5.677 131.203H7.60409V147.01H5.677V131.203Z" fill="#231F20"/>
</svg>
