<svg width="279" height="346" viewBox="0 0 279 346" fill="none" xmlns="http://www.w3.org/2000/svg">
<path d="M84.552 345.458C65.3281 345.458 6.45829 345.281 2.276 343.193C0.380165 342.255 -0.296918 340.479 0.510373 338.568C2.60933 333.604 15.0208 327.76 28.1822 331.005C27.1718 326.422 29.2708 321.312 33.8541 317.932C38.7708 314.302 46.8802 312.776 54.7656 319.151C54.8125 312.073 58.6718 305.578 64.8593 302.875C70.4114 300.453 76.4322 301.542 81.927 305.713C80.9531 301.896 81.2031 298.12 82.6875 294.625C85.5364 287.943 92.7031 283.224 101.844 282.021C107.276 281.302 125.604 279.76 133.536 289.833C137.755 295.198 138.281 302.802 135.094 312.453C137.797 312.161 140.927 312.911 142.995 314.542C144.672 315.859 145.609 317.625 145.755 319.651C149.385 318.182 154.599 318.109 157.214 320.37C158.932 321.854 160.167 324.599 157.406 329.562C168.495 328.422 177.776 333.547 179.026 338.213C179.495 339.995 178.849 342.271 175.604 343.281C171.094 344.708 127.161 345.411 88.2395 345.458C87.2552 345.458 86.0208 345.458 84.552 345.458ZM20.4427 332.974C11.5104 332.974 4.3437 336.984 3.19787 339.698C3.02079 340.125 3.01037 340.302 3.56766 340.578C9.71871 343.167 166.479 343.094 174.708 340.495C176.437 339.948 176.266 339.26 176.193 338.963C175.396 335.969 166.219 330.474 154.687 332.958L150.885 333.781L153.203 330.667C154.865 328.422 157.359 324.38 155.292 322.604C153.115 320.724 146.964 321.547 145.021 323.469L141.099 327.375L142.583 322.031C143.203 319.812 142.734 318.062 141.177 316.833C138.958 315.083 135.271 314.906 133.448 315.922L129.922 317.875L131.38 314.115C135.198 304.198 135.151 296.635 131.229 291.656C124.255 282.802 107.26 284.271 102.224 284.943C94.1145 286.016 87.8125 290.068 85.375 295.797C83.2031 300.88 84.276 306.797 88.3854 312.469C88.4323 312.51 88.4583 312.573 88.5052 312.615L86.1406 314.333C86.0937 314.276 86.0677 314.229 86.0208 314.172C79.9843 305.932 72.526 302.713 66.0312 305.552C59.9531 308.208 56.5885 315.365 58.026 322.573L59.0416 327.672L55.5156 323.865C48.0989 315.849 40.151 316.917 35.5989 320.297C31.8385 323.073 29.3593 328.172 31.901 332.531L33.8802 335.953L30.151 334.646C26.802 333.458 23.526 332.974 20.4427 332.974Z" fill="black"/>
<path d="M154.38 331.521C170.401 328.068 183.375 339.302 175.146 341.885C166.922 344.49 8.97392 344.912 2.92184 341.885C-3.13025 338.865 13.302 327.172 30.6041 333.234C24.5677 322.823 42.151 307.255 56.5729 322.854C53.3437 306.651 72.3489 292.833 87.302 313.469C76.9323 299.323 85.5677 285.651 102.016 283.474C118.469 281.302 144.422 284.344 132.745 314.641C136.651 312.484 146.156 314.641 143.995 322.427C147.901 318.521 164.339 318.078 154.38 331.521Z" fill="#CADBEA"/>
<path d="M75.099 66.4219C53.9271 61.8594 36.7865 76.7084 47.6563 80.125C58.5261 83.5573 267.224 84.1198 275.219 80.125C283.214 76.125 261.5 60.6771 238.641 68.6927C246.615 54.9323 223.385 34.3646 204.328 54.974C208.599 33.5677 183.484 15.3073 163.729 42.5729C177.427 23.8854 166.016 5.81772 144.281 2.94272C122.547 0.0729327 88.2552 4.08856 103.682 44.125C98.5208 41.2708 85.9636 44.125 88.8177 54.4115C83.6563 49.25 61.9375 48.6667 75.099 66.4219Z" fill="#CADBEA"/>
<path d="M167.359 84.8385C192.76 84.8385 270.542 84.6041 276.073 81.8489C278.578 80.6094 279.469 78.2604 278.401 75.7396C275.625 69.1771 259.229 61.4531 241.839 65.7448C243.177 59.6875 240.406 52.9323 234.349 48.4687C227.849 43.6771 217.135 41.6614 206.714 50.0833C206.656 40.7291 201.552 32.151 193.38 28.5781C186.047 25.375 178.089 26.8125 170.833 32.3229C172.109 27.2812 171.781 22.2916 169.823 17.6719C166.057 8.84373 156.589 2.61456 144.516 1.02081C137.333 0.0728947 113.115 -1.96877 102.635 11.3437C97.0678 18.4271 96.3699 28.4844 100.578 41.2344C97.0105 40.8437 92.8751 41.8333 90.1355 43.9896C87.9271 45.7344 86.6824 48.0625 86.4896 50.7396C81.698 48.8021 74.8074 48.7031 71.3542 51.6927C69.0834 53.651 67.4532 57.2812 71.099 63.8437C56.448 62.3281 44.1824 69.0989 42.5313 75.2708C41.9115 77.6198 42.7657 80.6302 47.0574 81.9687C53.0105 83.8489 111.057 84.7812 162.484 84.8385C163.787 84.8385 165.417 84.8385 167.359 84.8385ZM252.068 68.3437C263.865 68.3437 273.339 73.6406 274.849 77.2344C275.083 77.7969 275.104 78.026 274.365 78.3958C266.234 81.8125 59.1042 81.7135 48.2396 78.2812C45.948 77.5625 46.1824 76.651 46.2761 76.2604C47.3282 72.3021 59.4584 65.0469 74.6876 68.3229L79.7188 69.4114L76.6511 65.2969C74.4584 62.3281 71.1563 56.9896 73.8959 54.6406C76.7657 52.1562 84.8959 53.2448 87.4584 55.7864L92.6407 60.9479L90.6824 53.8854C89.8646 50.9531 90.4896 48.6458 92.5417 47.0156C95.474 44.7083 100.344 44.4739 102.75 45.8125L107.412 48.3958L105.49 43.4271C100.443 30.3281 100.5 20.3333 105.682 13.7552C114.901 2.05206 137.354 3.98956 144.01 4.88539C154.724 6.30206 163.047 11.6562 166.271 19.2239C169.141 25.9375 167.724 33.7604 162.292 41.25C162.234 41.3125 162.193 41.3854 162.135 41.4479L165.26 43.7187C165.318 43.6406 165.359 43.5833 165.417 43.5052C173.391 32.6146 183.25 28.3646 191.828 32.1094C199.865 35.625 204.307 45.0729 202.406 54.6041L201.068 61.3385L205.724 56.3125C215.526 45.7135 226.026 47.1302 232.042 51.5937C237.01 55.2656 240.287 62 236.932 67.7604L234.313 72.2812L239.24 70.5573C243.667 68.9844 247.99 68.3437 252.068 68.3437Z" fill="black"/>
</svg>
