<svg width="750" height="634" viewBox="0 0 750 634" fill="none" xmlns="http://www.w3.org/2000/svg">
<path d="M-74.9792 72.1562H-89.7812L-78.9635 125.016L-24.224 135.651L14.3958 113.26V71.0052L-2.23958 53.1875L-53.5052 42.6979L-54.1823 43.7187C-56.1927 46.6979 -71.8333 67.9166 -74.9792 72.1562Z" fill="black"/>
<path d="M312.411 128.068V101.182L311.698 100.63C310.49 99.7187 308.682 99.151 306.161 98.9166C299.031 98.2031 288.229 100.193 287.776 100.286L287.042 100.411L274.432 118.125L293.312 135.849L312.411 128.068Z" fill="black"/>
<path d="M200.849 305.62L203.594 319.677L215.62 319L216.115 318.453C218.141 316.26 222.818 310.776 222.547 307.521L222.474 306.609L210.172 298.917L200.849 305.62Z" fill="black"/>
<path d="M381.224 284.437L381.974 284.859L382.719 284.677C383.068 284.583 384.422 284.219 386.396 283.672C392.224 282.047 409.844 277.167 412.313 277.036C415.125 277.734 443.328 284.677 443.328 284.677L444.604 284.99L465.021 252.75L476.172 235.13L465.917 217.38L429.969 204.24H417.74L417.391 204.406C414.339 205.76 408.766 208.115 402.865 210.604C391.656 215.318 384.766 218.24 383.469 219.026C381.24 220.359 372.797 232.057 369.271 237.031L368.797 237.687L368.958 238.474C378.609 282.812 380.438 283.948 381.224 284.437Z" fill="black"/>
<path d="M512.266 295.625L499.089 280.438L497.734 281.458C495.083 283.453 486.641 287.219 483.609 288.495L482.495 288.974V315.401L499.854 312.328L512.266 295.625Z" fill="black"/>
<path d="M338.307 396.146H361.979L367.792 386.297L380.109 379.698L383.396 357.073L362.562 345.047L345.328 347.693C344.594 347.786 342.021 348.573 328.531 355.115L328.021 355.37L319.521 370.469L320.088 371.38C335.604 396.146 337.104 396.146 338.307 396.146Z" fill="black"/>
<path d="M335.021 539.469L362.38 532.745L392.552 534.849L417.776 544.313L449.74 477.714L414.411 436.63L390.089 431.656L380.984 436.849C377.766 436.536 361.797 433.651 351.891 431.786L351.193 431.656L332.937 443.063L318.042 492.115L335.021 539.469Z" fill="black"/>
<path d="M246.141 240.76L236.948 260.042L237.073 260.646C241.057 279.745 242.302 280.563 242.958 281.005C243.818 281.589 251.167 287.786 255.589 291.547L256.266 292.135L280.74 286.891L295.635 288.755L305.354 255.911L283.974 234.984H274.687L274.396 235C271.818 235.422 248.005 240.375 247 240.578L246.141 240.76Z" fill="black"/>
<path d="M749.24 631.016H700.422V540.547H729.427L700.151 514.031V457.776H671.125V487.729L651.458 469.911L653.469 468.083H555.963L476.005 540.531H498.323V631H437.406L384.953 597.297L372.083 583.807L371.661 583.479C351.542 571.984 318.828 553.016 316.745 551.042C315.937 550.234 311.516 544.661 290.974 516.568C295.943 507.724 297.005 498.953 293.771 492.901C292.016 489.615 288.177 485.667 279.823 484.552C283.719 476.474 286.443 461.01 279.255 452.859C272.422 445.109 259.115 445.714 239.651 454.667C241.042 448.089 241.297 437.307 235.615 431.729C231.391 427.583 224.974 427.161 216.516 430.453C218.906 417.51 218.469 389.911 206.771 376.406C201.198 369.974 193.812 367.417 184.838 368.802C174.005 370.484 164.552 374.651 157.443 380.849L158.047 379.479L141.25 372.115L130.448 361.313C138.365 352.646 140.906 341.151 136.427 333.385C133.375 328.083 127.651 325.651 120.344 326.349C123.047 322 124.51 315.729 124.036 309.479C123.448 301.62 119.943 295.641 114.422 293.068C109.745 290.875 101.609 290.234 88.4687 298.167C99.3072 274.422 100.604 254.026 91.9062 241.563C86.7343 234.161 78.4166 230.375 69.6458 231.458C60.177 232.609 52.151 239.057 47.9478 248.818C39.6145 247.667 26.3072 249.203 20.6458 260.865L4.41659 243.682C3.06242 238.875 2.03638 235.073 1.41659 232.385C0.359298 227.839 5.89576 217.401 11.0103 209.76L9.60409 208.828L9.40617 208.646L8.43742 207.255L0.156174 212.979V208.521L-2.38549 209.615C-3.55216 210.125 -5.10945 210.766 -6.45841 211.333C-5.16154 207.568 -2.51049 200.88 0.0259652 194.792L1.94784 190.167L-12.3074 197.536V186L-15.2709 188.359C-17.4272 190.078 -25.0834 195.891 -35.0261 200.219C-39.9428 198.099 -47.6563 194.922 -49.448 194.922C-50.6355 194.849 -62.1303 192.656 -70.5209 191.047C-79.6407 189.313 -84.0261 188.469 -86.2397 188.193C-89.5261 181.177 -103.781 152.74 -127.323 132.344L-129.276 130.641L-154.026 194.792L-139.823 296.281L-140.448 299.74C-140.063 299.813 -139.698 299.885 -139.313 299.958L-133.391 342.302L-164.589 692.151H32.0468L239.193 710.74L311.078 676.693L450.109 664.266L439.469 634.672H749.24V631.016ZM2.7343 244.615C2.71347 244.615 2.71347 244.615 2.7343 244.615Z" fill="black"/>
<path d="M238.208 321.323L235.25 333.146L242.557 344.297L248.792 342.448H255.188L263.193 328.943L251.932 320.078L238.208 321.323Z" fill="black"/>
<path d="M386.557 116.693L390.193 116.818C390.885 96.8802 363.365 54.276 328.438 50L328 53.6198C360.495 57.6042 387.198 98.3594 386.557 116.693Z" fill="black"/>
<path d="M474.287 346.635C467.526 347.13 459.813 356.505 456.594 367.87C442.083 365.771 426.729 355.26 429.109 331.906L425.469 331.536C424.245 343.51 427.333 353.672 434.391 360.927C439.76 366.448 447.276 370.104 455.682 371.401L455.662 371.474H455.734C452.646 387.484 459.682 400.552 474.906 406.656L476.26 403.276C457.344 395.688 457.781 379.75 459.375 371.818C460.307 371.875 461.24 371.927 462.151 371.927C470.776 371.927 478.177 369.188 481.708 364.526C484.172 361.255 484.578 357.328 482.896 353.161C480.427 347.109 476.443 346.469 474.287 346.635ZM479.479 354.51C480.667 357.474 480.427 360.104 478.766 362.318C475.729 366.354 468.458 368.62 460.25 368.219C463.339 357.927 470.026 350.583 474.542 350.255C476.625 350.125 478.292 351.531 479.479 354.51Z" fill="black"/>
<path d="M99.7812 62.25C96.1614 68.7605 92.9635 77.2032 90.276 87.4011C79.4739 77.823 68.1458 76.4323 59.5937 83.7813C44.8593 96.4271 43.2343 129.146 63.5937 158.698L11.0833 167.635L33.9687 173.375L12.4374 186.99L31.7395 185.068L19.0155 198.557L76.901 182.162C67.0676 198.099 70.9791 213.068 79.9166 221.365C87.0051 227.948 98.9062 231.146 109.578 223.979C109.943 231.896 113.984 237.927 120.635 240.193C128.474 242.859 139.792 240.026 148.708 228.292C150.318 235.057 153.865 240.578 159.088 244.432C164.5 248.396 171.354 250.427 179.302 250.427C182.755 250.427 186.411 250.042 190.234 249.276C195.224 248.271 198.458 246.349 200.141 243.391C202.969 238.38 200.594 231.787 198.094 224.823C195.734 218.26 193.302 211.464 195.312 206.234C197.963 199.365 207.141 198.797 218.76 198.083C228.922 197.464 240.422 196.75 250.49 191.448C259.776 186.568 264.401 178.38 262.588 170.083C260.724 161.547 251.552 152.156 231.755 148.172C251.255 144.188 261.969 135.375 265.641 127.464C268.328 121.651 267.797 115.745 264.125 110.792C260.87 106.406 250.51 97.0521 222.271 99.573C231.792 90.724 238.448 76.6355 237.771 65.4844C237.422 59.599 235.01 55.3959 230.786 53.3125C223.734 49.823 212.255 52.8959 197.469 62.1771C198.422 54.5938 196.812 43.4636 189.411 39.2396C179.302 33.4844 163.713 42.9688 143.078 67.4219C141.016 58.1563 133.979 48.3438 124.75 46.1303C119.885 44.9636 110.656 45.198 101.849 58.7605C93.7343 46.2032 81.2135 32.4792 67.8541 21.5677C51.8958 8.55733 36.7447 1.06254 25.1562 0.458374L24.9739 4.09379C47.7135 5.24483 83.5312 36.099 99.7812 62.25Z" fill="black"/>
<path d="M724.693 538.719H698.594V632.844H648.516V542.01H604.417V632.844H500.13V538.719H572.797L648.734 469.911L672.932 491.823L698.302 514.818L724.693 538.719ZM561.667 585.109V551.677H528.24V585.109H561.667Z" fill="#87AAD2"/>
<path d="M698.323 459.604V514.833L672.953 491.844V459.604H698.323Z" fill="#F3AE88"/>
<path d="M500.146 538.719H480.74L556.677 469.927H648.755L572.818 538.719H500.146Z" fill="#CE636F"/>
<path d="M604.417 542.01H648.516V632.844H604.417V542.01Z" fill="#F3AE88"/>
<path d="M528.24 551.677H561.667V585.11H528.24V551.677Z" fill="#F3AE88"/>
<path d="M504.354 303.193L498.812 310.646L484.302 313.224V290.177C484.302 290.177 495.417 285.479 498.812 282.922L509.927 295.719L504.354 303.193Z" fill="#CE636F"/>
<path d="M464.672 218.88L474.047 235.094L463.484 251.781H463.469L417.229 266.823L406.625 255.286L389.646 248.583L384.422 220.583C386.557 219.281 410.464 209.469 418.141 206.068H429.672L464.672 218.88Z" fill="#F3AE88"/>
<path d="M463.469 251.781L443.745 282.906C443.745 282.906 414.302 275.651 412.583 275.229C410.865 274.792 383.984 282.484 382.281 282.906C380.583 283.323 370.75 238.073 370.75 238.073C370.75 238.073 382.281 221.859 384.401 220.583L389.63 248.583L406.609 255.286L417.208 266.823L463.469 251.781Z" fill="#CE636F"/>
<path d="M-137.667 298.422L-152.141 194.995L-128.568 133.714C-102.083 156.651 -87.5887 189.787 -87.5522 189.787C-87.646 189.495 -51.3491 196.729 -49.5366 196.729C-47.7085 196.729 -35.0835 202.193 -35.0835 202.193C-41.8231 205.083 -49.3752 207.146 -56.7762 206.964C-56.7762 206.964 -36.1252 214.276 -28.3752 219.448C-20.6408 224.604 -21.5002 249.99 -21.922 253.005C-22.3595 256.021 -11.1772 233.208 -11.1772 233.208L5.1613 252.969C5.05192 252.568 3.9738 248.948 2.71338 244.599L21.1926 264.172C18.9426 270.698 18.9998 280.198 23.2394 293.87C15.5103 286.557 -9.02099 288.276 -3.80745 320.537C-36.0158 313.662 -39.1408 356.688 9.45818 363.557C-6.88037 370.432 -10.7554 395.818 12.9113 401.412C36.5623 406.984 41.5728 396.495 55.4998 418.188C56.578 419.87 57.3228 422.938 57.8384 426.958C57.8748 427.328 57.9113 427.693 57.9478 428.057C57.9998 428.604 58.0363 428.969 58.0571 429.115C60.104 450.484 56.354 492.151 56.354 492.151C67.5623 490.432 89.9113 495.188 89.9113 495.188C85.453 491.073 74.4478 463.99 75.2551 439.406C75.3801 435.531 75.8019 431.729 76.5884 428.073C81.7446 403.984 95.9426 404.844 114.437 404.844C132.937 404.844 146.26 373.026 112.281 370.432C118.755 368.474 123.963 365.24 127.854 361.349L140.172 373.646L157.281 381.141L158.12 382.62C143.5 395.781 139.901 418.224 157.281 445.766C144.484 434.891 110 451.563 133.156 480.984C126.646 477.807 99.1248 483.432 112.172 505.88C100.568 501.547 80.3176 516.021 91.1717 533.203C46.9998 540.24 60.0467 597.844 112.906 575.057C102.76 592.818 119.411 628.276 157.297 587.412C160.443 595.068 173 610.167 190.234 582.094L185.114 652.198L152.015 669.162C157.078 668.12 178.807 665.943 181.698 665.943C184.583 665.943 199.5 669.162 199.5 669.162L230.932 665.943L206.318 652.198L204.104 585.109C207.703 592.62 227.318 594.979 236.729 578.328C275.125 602.214 303.344 550.073 267.781 533.219C275.656 532.287 283.771 525.177 288.797 516.734C296.182 526.844 313.323 550.234 315.443 552.375C318.187 555.099 370.75 585.109 370.75 585.109L383.76 598.74L436.854 632.844L447.583 662.636L310.583 674.901L238.864 708.875L32.2134 690.323H-162.599L-131.547 342.266L-137.667 298.422ZM28.2655 554.547C56.6665 557.219 57.5259 502.682 22.5467 511.25C34.5363 504.307 33.604 478.281 9.47901 484.24C44.7863 462.708 0.338384 406.417 -27.5887 462.745C-26.2345 433.484 -59.0783 417.948 -82.1408 431.271C-101.589 442.495 -109.047 477.969 -83.5158 495.203L-83.5314 495.224C-96.0314 495.313 -113.177 517.302 -95.9064 531.943C-109.193 535.047 -107.875 565.203 -81.2658 557.656C-91.4845 566.979 -82.5991 582.953 -64.8543 578.511C-47.1252 574.089 -39.7762 573.026 -33.5835 585H-33.5627L-32.4845 621.99L-62.2033 630.417C-60.4116 630.417 -31.1512 630.417 -31.1512 630.417H6.9738L-14.7554 621.99L-17.9012 582.511H-17.8647C-11.6512 570.542 2.55192 577.193 13.1873 579.844C23.8228 582.511 34.9009 568.75 20.7186 562.995C27.3905 561.641 28.2655 554.547 28.2655 554.547Z" fill="#CE636F"/>
<path d="M381.422 358.021L378.443 378.526L368.135 384.047L366.599 381.162L355.693 378.073L345.562 383.828L335.677 367.161L345.562 349.484L362.213 346.927L381.422 358.021Z" fill="#CE636F"/>
<path d="M351.557 433.578C351.557 433.578 378.885 438.693 381.422 438.693L390.396 433.578L413.443 438.271L447.583 477.969L416.859 541.995L392.958 533.021L362.234 530.88L336.187 537.276L319.979 492.026L334.49 444.214L351.557 433.578Z" fill="#F3AE88"/>
<path d="M366.599 381.161L368.135 384.047L366.49 384.922L360.953 394.318C360.953 394.318 340.047 394.318 338.328 394.318C336.63 394.318 321.677 370.411 321.677 370.411L329.37 356.76C329.37 356.76 344.302 349.505 345.583 349.505L335.698 367.177L345.583 383.844L355.708 378.089L366.599 381.161Z" fill="#F3AE88"/>
<path d="M305.63 104.286L305.979 100.724C307.953 100.906 309.615 101.328 310.583 102.078V126.823L301.958 130.349L300.13 125.927L304.953 116.24L305.63 104.286Z" fill="#CE636F"/>
<path d="M300.146 125.927L301.974 130.349L293.734 133.729L276.865 117.901L288.12 102.094C288.12 102.094 299.052 100.047 305.995 100.74L305.651 104.307L304.99 116.26L300.146 125.927Z" fill="#CE636F"/>
<path d="M287.995 241.453L303.307 256.438L294.333 286.745L280.682 285.026L256.797 290.141C256.797 290.141 245.266 280.328 244 279.469C242.703 278.609 238.885 260.24 238.885 260.24L247.422 242.328C247.422 242.328 272.167 237.193 274.745 236.776H283.276L287.995 241.453Z" fill="#F3AE88"/>
<path d="M198.714 521.12L196.156 481.021L195.057 495.224L191.437 542.011L178.771 524.724L191.437 555.136L157.26 542.011L191.437 565.276L190.198 582.094C172.964 610.182 160.406 595.068 157.26 587.412C119.391 628.276 102.745 592.818 112.87 575.057C59.9948 597.844 46.9635 540.24 91.1354 533.203C80.2812 516.021 100.547 501.547 112.135 505.88C99.1041 483.432 126.609 477.807 133.12 480.984C109.964 451.578 144.448 434.912 157.245 445.766C139.865 418.203 143.464 395.781 158.083 382.62C164.974 376.427 174.312 372.261 185.062 370.594C218.578 365.386 217.828 420.62 213.865 433.542C243.198 419.703 239.615 451.563 236.693 458.068C292.437 430.542 283.661 475.776 276.828 486.12C296.948 487.125 296.656 503.521 288.781 516.698C283.755 525.141 275.641 532.25 267.76 533.182C303.328 550.037 275.109 602.177 236.708 578.292C227.297 594.938 207.667 592.583 204.089 585.073L202.661 541.974L227.297 521.083L199.464 533.203L198.714 521.12Z" fill="#3A9980"/>
<path d="M260.797 329.401L254.146 340.62H248.536L243.344 342.156L237.203 332.818L239.672 323.021L251.385 321.964L260.797 329.401Z" fill="#CE636F"/>
<path d="M173.745 152.938L143.281 150.271L154.354 129.802L135.51 149.339L112.688 152.865L115.995 122.984L103.292 153.818L66.7761 160.01C31.8855 112.51 58.6771 58.2292 91.2813 90.8542C94.3907 78.2604 98.0105 68.9063 101.901 62.1771C119.083 32.349 140.979 54.2656 141.891 71.7188C192.516 9.85417 199.26 53.7188 194.766 66.1094C249.87 28.9896 241.99 85.2083 216.13 102.094C282.146 92.8438 281.432 144.021 217.266 148.208C263.995 150.745 271.052 178.547 249.667 189.802C228.287 201.063 199.26 190.953 193.63 205.557C188.021 220.177 212.385 242.99 189.885 247.484C167.385 251.979 151.76 242.365 149.766 223.563C135.146 247.172 109.286 242.698 111.531 220.177C90.1667 239.313 57.599 209.818 81.2657 179.036L103.036 172.88L154.828 186.75L113.396 167.964L139.99 157.781L173.745 152.938Z" fill="#3A9980"/>
<path d="M220.734 307.667C220.974 310.484 214.776 317.208 214.776 317.208L205.073 317.755L202.859 306.406L210.245 301.109L220.734 307.667Z" fill="#CE636F"/>
<path d="M173.745 152.938L139.974 157.802L113.38 167.979L154.812 186.771L103.016 172.88L81.25 179.057L24.8854 195.011L36.4166 182.766L19.9323 184.412L38.5364 172.641L19.9323 167.979L66.7552 160.01L103.255 153.818L115.974 122.964L112.667 152.865L135.495 149.339L154.339 129.802L143.281 150.271L173.745 152.938Z" fill="#F3AE88"/>
<path d="M151.979 669.162L185.078 652.203L190.198 582.094L191.437 565.276L157.26 542.01L191.437 555.135L178.771 524.724L191.437 542.01L195.057 495.224L196.156 481.021L198.714 521.12L199.479 533.24L227.318 521.12L202.677 542.01L204.104 585.109L206.318 652.198L230.932 665.943L199.5 669.162C199.5 669.162 184.604 665.943 181.698 665.943C178.792 665.943 157.062 668.12 151.979 669.162Z" fill="#F3AE88"/>
<path d="M57.2135 352.156L49.2083 330.552L68.1093 367.198L80.8489 357.672L97.0416 345.573L88.7083 355.536L72.4948 374.891L75.2552 439.443C74.4479 464.026 85.4531 491.13 89.9114 495.224C89.9114 495.224 67.5625 490.49 56.3541 492.188C56.3541 492.188 60.1041 450.521 58.0573 429.151C58.0364 429.005 58 428.641 57.9479 428.094C57.927 427.781 57.8906 427.417 57.8385 426.995C57.0885 418.917 54.5677 391.724 54.5677 391.724L46.4166 383.042L37.6979 373.755L62.2395 389.146V365.714L57.2135 352.156Z" fill="#F3AE88"/>
<path d="M57.2135 352.156L62.2395 365.713V389.146L37.6978 373.755L46.4166 383.042L54.5676 391.724C54.5676 391.724 57.0885 418.917 57.8385 426.995C57.3228 422.974 56.578 419.906 55.4999 418.224C41.5728 396.531 36.5624 407.021 12.9114 401.448C-10.7345 395.854 -6.88029 370.469 9.45825 363.594C-39.1407 356.724 -36.0313 313.698 -3.80738 320.573C-9.02092 288.312 15.5103 286.594 23.2395 293.906C19.0155 280.234 18.9635 270.734 21.1926 264.208C26.1978 249.458 42.776 249.713 49.0468 250.901C62.3853 216.068 120.453 231.969 83.901 303.391C126.062 273.292 128.203 320.588 115.297 329.198C138.859 322.708 142.917 346.578 127.854 361.401C123.943 365.297 118.755 368.531 112.281 370.484C146.26 373.083 132.937 404.901 114.437 404.901C95.927 404.901 81.7447 404.042 76.5885 428.13C75.802 431.786 75.3801 435.588 75.2551 439.463L72.4947 374.906L88.7083 355.552L97.0416 345.594L80.8489 357.693L68.1093 367.213L49.2082 330.568L57.2135 352.156Z" fill="#3A9980"/>
<path d="M12.5468 71.7188V112.203L-24.5521 133.729L-77.4271 123.458L-87.5521 73.9844H-74.0625C-74.0625 73.9844 -54.9271 48.1042 -52.698 44.724L-3.20837 54.849L12.5468 71.7188Z" fill="#F3AE88"/>
<path d="M-83.5157 495.203C-109.047 477.969 -101.589 442.479 -82.1407 431.271C-59.0782 417.969 -26.2344 433.484 -27.5886 462.745C0.338514 406.438 44.7708 462.708 9.47914 484.24C33.6041 478.281 34.5364 504.307 22.5468 511.25C57.5468 502.682 56.6666 557.219 28.2656 554.547C28.2656 554.547 27.3906 561.641 20.7343 562.974C34.9166 568.729 23.8437 582.495 13.2031 579.823C2.55205 577.156 -11.6302 570.521 -17.8438 582.495H-17.8854L-20.0573 555.005L-4.14065 528.484L-1.87503 524.724L-4.10419 526.547L-25.3229 543.912V511.656L-32.0313 553.672L-51.5469 540.807L-34.2396 561.656L-33.5469 585H-33.5625C-39.7604 573.01 -47.1094 574.068 -64.8334 578.51C-82.5834 582.948 -91.4636 566.979 -81.25 557.656C-107.859 565.203 -109.193 535.047 -95.8854 531.943C-113.193 517.302 -96.0313 495.313 -83.5157 495.203Z" fill="#3A9980"/>
<path d="M-11.1772 233.245C-11.1772 233.245 -22.3595 256.036 -21.922 253.042C-21.5001 250.026 -20.6407 224.641 -28.3751 219.484C-36.1251 214.328 -56.7761 207 -56.7761 207C-49.3751 207.182 -41.823 205.099 -35.0834 202.229C-25.7397 198.266 -17.9584 192.802 -14.1928 189.802V200.552L-1.70841 194.115C-1.70841 194.115 -10.3178 214.771 -9.02091 214.328C-7.71883 213.911 -1.70841 211.312 -1.70841 211.312V216.469L9.44263 208.776C8.81763 209.708 -2.073 225.734 -0.411538 232.828C0.374921 236.172 1.61971 240.687 2.7343 244.615V244.635C3.99471 248.984 5.07284 252.604 5.18221 253.005L-11.1772 233.245Z" fill="#F3AE88"/>
<path d="M-62.2031 630.396L-32.4844 621.969L-33.5625 584.979L-34.2604 561.641L-51.5677 540.787L-32.0469 553.651L-25.3385 511.635V543.896L-4.11979 526.531C-4.14062 527.74 -4.15625 528.469 -4.15625 528.469L-20.0781 554.99L-17.901 582.474L-14.7552 621.953L6.97396 630.38H-31.151C-31.151 630.396 -60.4115 630.396 -62.2031 630.396Z" fill="#F3AE88"/>
<path d="M179.323 250.427C171.37 250.427 164.5 248.417 159.109 244.432C153.88 240.594 150.333 235.073 148.724 228.292C139.807 240.026 128.495 242.859 120.651 240.193C114 237.943 109.964 231.896 109.594 223.979C98.9219 231.146 87.026 227.948 79.9323 221.365C70.1927 212.339 66.3698 195.396 79.8073 177.922L82.6927 180.151C70.6667 195.797 73.8854 210.786 82.401 218.698C89.2552 225.057 100.531 227.562 110.292 218.828L113.781 215.703L113.323 220.359C112.5 228.531 115.682 234.656 121.807 236.74C128.823 239.115 140.083 235.714 148.198 222.594L150.995 218.057L151.557 223.359C152.38 231.161 155.724 237.432 161.245 241.49C168.135 246.552 177.911 248.016 189.521 245.693C193.411 244.906 195.844 243.573 196.958 241.583C198.969 238.036 196.865 232.203 194.656 226.026C192.078 218.844 189.411 211.406 191.896 204.901C195.385 195.833 206.115 195.177 218.526 194.411C228.323 193.807 239.417 193.109 248.792 188.177C256.667 184.026 260.505 177.542 259.026 170.812C257.052 161.75 244.99 151.516 217.135 150.016L217.12 146.38C244.276 144.604 258.276 134.625 262.333 125.891C264.438 121.359 264.031 116.75 261.198 112.932C254.75 104.234 237.99 100.849 216.37 103.885L208.271 105.021L215.109 100.557C227.26 92.625 234.755 76.1041 234.13 65.6666C233.948 62.526 232.927 58.3958 229.182 56.5468C225.526 54.7395 216.333 53.7708 195.75 67.625L191.109 70.75L193.031 65.4843C195.151 59.6562 194.344 46.2031 187.62 42.3854C182.682 39.5677 170.349 39.8072 143.281 72.8906L140.302 76.5416L140.063 71.8281C139.604 63.0572 132.865 51.7968 123.927 49.6406C116.615 47.8854 109.542 52.5468 103.474 63.0937C99.4531 70.0364 95.9427 79.5208 93.0573 91.2916L92.2865 94.4375L90.0052 92.151C79.8802 82.0104 69.6615 79.9791 61.9844 86.5572C50.2344 96.6458 45.7031 128.229 68.2344 158.932L65.2917 161.089C43.1406 130.932 44.4792 96.776 59.5938 83.7968C68.1615 76.4531 79.474 77.8437 90.276 87.4166C93.1094 76.7083 96.474 67.9166 100.313 61.2812C109.578 45.1979 119.609 44.8697 124.766 46.0937C133.995 48.3072 141.031 58.1406 143.099 67.3854C163.729 42.9322 179.302 33.4479 189.427 39.2031C196.828 43.427 198.438 54.5572 197.49 62.1406C212.276 52.8593 223.75 49.7864 230.807 53.276C235.026 55.3593 237.443 59.5833 237.786 65.4479C238.448 76.6145 231.813 90.7083 222.292 99.5364C250.526 97.0156 260.891 106.391 264.141 110.755C267.797 115.693 268.349 121.615 265.661 127.427C261.984 135.339 251.276 144.167 231.776 148.135C251.589 152.12 260.745 161.51 262.609 170.047C264.417 178.344 259.776 186.531 250.51 191.411C240.438 196.714 228.922 197.427 218.781 198.047C207.156 198.76 197.984 199.328 195.333 206.198C193.323 211.443 195.75 218.224 198.109 224.786C200.615 231.766 202.969 238.344 200.156 243.354C198.474 246.312 195.24 248.25 190.25 249.24C186.411 250.042 182.755 250.427 179.323 250.427Z" fill="black"/>
<path d="M-24.2448 135.651L-78.9792 125.016L-89.7812 72.1562H-74.9792C-71.8333 67.901 -56.1927 46.6979 -54.1979 43.7187L-53.5208 42.6979L-2.25521 53.1875L14.375 71.0052V113.26L-24.2448 135.651ZM-75.8906 121.906L-24.8802 131.812L10.7188 111.161V72.4479L-4.14062 56.5312L-51.875 46.7708C-55.9167 52.5104 -71.8698 74.0937 -72.6042 75.0833L-73.151 75.8125H-85.3437L-75.8906 121.906Z" fill="black"/>
<path d="M293.328 135.87L274.453 118.141L287.063 100.432L287.792 100.302C288.25 100.214 299.052 98.2188 306.177 98.9323C308.682 99.1719 310.51 99.7188 311.719 100.651L312.427 101.198V128.083L293.328 135.87ZM279.255 117.667L294.115 131.609L308.776 125.615V103.156C308.188 102.917 307.276 102.677 305.813 102.552C300.182 101.984 291.667 103.318 289.161 103.755L279.255 117.667Z" fill="black"/>
<path d="M203.594 319.656L200.849 305.604L210.193 298.896L222.49 306.589L222.562 307.505C222.838 310.755 218.161 316.224 216.13 318.432L215.635 318.984L203.594 319.656ZM204.891 307.214L206.573 315.839L213.937 315.417C216.187 312.88 218.177 310.047 218.76 308.563L210.338 303.281L204.891 307.214Z" fill="black"/>
<path d="M-21.7188 255.198C-21.9584 255.198 -22.1772 255.125 -22.4324 255.052C-23.0209 254.87 -23.9324 254.193 -23.7292 252.766C-23.2188 249.13 -22.8178 225.37 -29.3959 220.984C-36.8699 216.01 -57.1772 208.792 -57.3959 208.719L-68.198 204.901L-56.7553 205.172C-50.4324 205.338 -43.3803 203.766 -35.8126 200.552C-25.5417 196.198 -17.5522 190.13 -15.3595 188.38L-12.4011 186.021V197.552L1.85409 190.187L-0.0625793 194.812C-2.60425 200.896 -5.25529 207.604 -6.55216 211.354C-5.18237 210.786 -3.64591 210.125 -2.47404 209.635L0.0624207 208.536V212.995L8.34367 207.276L10.4114 210.271L-3.58862 219.943V214.057C-5.43758 214.844 -7.71883 215.776 -8.52612 216.047L-9.61987 216.417L-10.5001 215.557C-11.3595 214.625 -11.9063 214.036 -5.34383 198.026L-16.0574 203.547V193.479C-19.8959 196.234 -26.4897 200.568 -34.4063 203.911C-39.2865 205.995 -43.9792 207.422 -48.4584 208.187C-41.698 210.823 -32.2501 214.75 -27.422 217.969C-20.9011 222.318 -19.9115 237.411 -19.9324 246.406C-17.922 242.588 -15.2865 237.375 -12.8751 232.443L-11.6303 229.901L6.91659 252.328L6.93742 253.021H3.28117H5.1093L3.79159 254.281L-10.8647 236.573C-18.8126 252.896 -20.3855 255.198 -21.7188 255.198ZM-20.0938 253.187C-20.0938 253.24 -20.0938 253.276 -20.0938 253.276C-20.1147 253.26 -20.1147 253.224 -20.0938 253.187Z" fill="black"/>
<path d="M3.41142 253.479C3.37496 253.333 3.18746 252.75 2.93225 251.833C2.47913 250.297 1.76558 247.87 0.979126 245.125L4.48954 244.12C5.276 246.844 5.98433 249.255 6.44267 250.813C6.71871 251.76 6.901 252.365 6.93746 252.531L3.41142 253.479Z" fill="black"/>
<path d="M0.95832 245.109C-0.463555 240.063 -1.54168 236.063 -2.20314 233.245C-3.82814 226.281 4.28645 213.162 7.84895 207.844L8.12499 207.479L9.53124 208.849L10.9375 209.781C5.8229 217.422 0.286445 227.854 1.34374 232.406C1.99999 235.167 3.04165 239.115 4.45311 244.104L0.95832 245.109Z" fill="black"/>
<path d="M96.0521 498.385L89.5261 496.995C89.3073 496.943 67.3594 492.354 56.6302 493.979L54.3281 494.328L54.5313 492.005C54.5677 491.589 58.2188 450.26 56.2292 429.302L59.8646 428.953C61.6563 447.667 59.1146 481.115 58.3646 490.104C66.8854 489.427 79.2761 491.365 85.8386 492.557C80.4636 483.052 72.7344 460.385 73.4271 439.354C73.5729 435.219 74.0313 431.292 74.7969 427.708C80.099 402.979 95.1407 402.964 112.594 403.036H114.438C123.651 403.036 131.125 394.193 131.417 386.568C131.729 378.438 124.708 373.229 112.135 372.26L102.375 371.51L111.734 368.693C117.583 366.938 122.573 364.036 126.557 360.068C134.177 352.557 137.047 341.865 133.208 335.229C130.286 330.151 124.089 328.63 115.776 330.917L104.88 333.917L114.292 327.625C118.313 324.943 120.927 317.245 120.359 309.755C119.87 303.245 117.125 298.365 112.849 296.375C106.505 293.411 96.8594 296.339 84.9584 304.818L78.8542 309.203L82.2709 302.531C95.1042 277.474 97.5156 256.036 88.8906 243.682C84.5 237.411 77.4636 234.198 70.0469 235.109C61.5104 236.151 54.2917 242.292 50.7448 251.542L50.1979 252.969L48.6979 252.677C47.875 252.531 28.2813 249 22.9115 264.792C20.5365 271.682 21.2292 281.297 24.974 293.375L27.0209 300.01L21.9792 295.24C18.7813 292.208 11.724 290.839 5.93231 293.891C-1.3229 297.729 -4.14061 307.104 -2.02081 320.281L-1.59894 322.911L-4.21352 322.365C-12.2708 320.646 -19.0521 322.161 -22.8177 326.547C-25.9791 330.203 -26.6562 335.578 -24.6614 340.875C-20.6614 351.495 -7.82811 359.318 9.69794 361.802L16.2396 362.734L10.1511 365.297C2.47919 368.531 -2.60415 376.609 -1.9479 384.521C-1.3229 392.016 4.23439 397.552 13.3177 399.708C20.9167 401.5 26.6406 401.594 31.2448 401.667C41.1667 401.813 47.1615 401.922 57.0156 417.276C58.1823 419.099 59.0417 422.208 59.6302 426.797L59.7396 427.948L56.099 428.313L55.9896 427.214C55.3698 422.318 54.5313 420.177 53.9427 419.25C45.1354 405.521 40.474 405.448 31.1875 405.323C26.4219 405.25 20.4792 405.156 12.4948 403.276C1.78127 400.734 -4.79686 394.026 -5.56248 384.849C-6.22394 376.974 -2.36457 369.245 4.11981 364.563C-12.1458 361.146 -23.9896 352.995 -28.0625 342.193C-30.5312 335.615 -29.5989 328.891 -25.5573 324.208C-21.3177 319.292 -14.2812 317.229 -5.96873 318.396C-8.16144 300.25 -0.609356 293.286 4.23439 290.729C9.56773 287.911 15.6563 288.094 20.2031 289.958C17.4115 279.214 17.1719 270.385 19.474 263.677C24.2813 249.531 38.9583 247.688 47.9115 248.927C52.1146 239.188 60.1406 232.734 69.6094 231.568C78.3802 230.49 86.6979 234.271 91.8698 241.672C100.568 254.12 99.2709 274.516 88.4323 298.276C101.573 290.359 109.708 291 114.385 293.177C119.906 295.755 123.396 301.729 124 309.589C124.474 315.839 123.01 322.109 120.307 326.458C127.615 325.76 133.339 328.214 136.391 333.495C141.104 341.661 138.073 353.964 129.151 362.755C126.318 365.589 123.01 367.906 119.318 369.734C134.286 373.245 135.203 383.427 135.073 386.786C134.708 396.219 125.828 406.766 114.438 406.766H112.594C94.8125 406.729 83.0417 406.708 78.3594 428.568C77.6302 431.948 77.1927 435.661 77.0625 439.573C76.2604 464.005 87.1875 490.323 91.1354 493.964L96.0521 498.385Z" fill="black"/>
<path d="M444.589 284.99L443.307 284.677C443.307 284.677 415.109 277.734 412.292 277.036C409.823 277.167 392.208 282.047 386.375 283.672C384.401 284.219 383.052 284.604 382.703 284.677L381.953 284.859L381.203 284.437C380.417 283.948 378.589 282.812 368.958 238.474L368.797 237.687L369.271 237.031C372.797 232.057 381.26 220.365 383.469 219.026C384.766 218.24 391.656 215.318 402.859 210.604C408.766 208.115 414.339 205.76 417.391 204.406L417.74 204.24H429.964L465.917 217.385L476.167 235.13L465.021 252.75L461.932 250.792L471.891 235.036L463.396 220.365L429.307 207.896H418.49C415.344 209.286 409.953 211.552 404.25 213.963C396.339 217.292 386.484 221.443 385.318 222.151C384.073 223.01 378.005 231.016 372.667 238.495C376.578 256.437 381.276 276.125 383.068 280.802C383.672 280.641 384.458 280.417 385.37 280.161C409.297 273.51 411.906 273.198 413.005 273.474C414.484 273.838 437.203 279.432 442.885 280.838L461.896 250.812L464.984 252.766L444.589 284.99ZM412.167 277H412.182C412.167 277 412.167 277 412.167 277Z" fill="black"/>
<path d="M482.474 315.401V288.974L483.588 288.495C486.625 287.219 495.068 283.432 497.719 281.458L499.068 280.438L512.245 295.625L499.838 312.313L482.474 315.401ZM486.109 291.365V311.031L497.771 308.969L507.568 295.792L498.469 285.297C494.958 287.453 488.672 290.25 486.109 291.365Z" fill="black"/>
<path d="M361.979 396.146H338.307C337.104 396.146 335.604 396.146 320.104 371.38L319.536 370.469L328.036 355.37L328.547 355.115C342.036 348.552 344.594 347.786 345.344 347.693L362.578 345.047L383.417 357.073L380.125 379.698L367.807 386.297L361.979 396.146ZM338.838 392.49H359.896L365.177 383.552L376.781 377.339L379.448 358.974L361.87 348.828L345.713 351.313C344.375 351.661 337.177 354.99 330.672 358.151L323.781 370.359C329.958 380.193 336.937 390.609 338.838 392.49Z" fill="black"/>
<path d="M417.776 544.313L392.552 534.849L362.38 532.745L335.021 539.469L318.042 492.115L332.937 443.063L351.193 431.656L351.891 431.786C361.797 433.651 377.766 436.536 380.984 436.849L390.089 431.656L414.411 436.63L449.74 477.714L417.776 544.313ZM362.068 529.073L393.594 531.339L415.948 539.724L445.448 478.281L412.495 439.953L390.724 435.516L381.937 440.542H381.443C378.958 440.542 357.792 436.609 351.927 435.516L336.042 445.438L321.896 492.026L337.359 535.156L362.068 529.073Z" fill="black"/>
<path d="M256.302 292.135L255.625 291.547C251.203 287.786 243.854 281.589 242.995 281.005C242.339 280.563 241.078 279.745 237.109 260.646L236.984 260.042L246.177 240.76L247.052 240.578C248.057 240.375 271.875 235.422 274.453 235L274.745 234.984H284.026L305.411 255.911L295.688 288.755L280.792 286.891L256.302 292.135ZM245.266 278.172C247.109 279.557 254.547 285.865 257.292 288.188L280.609 283.177L293.036 284.734L301.26 256.969L282.51 238.62H274.87C272.057 239.115 253.01 243.063 248.661 243.958L240.786 260.495C242.396 268.172 244.443 276.578 245.266 278.172ZM245.005 277.969C245.026 277.969 245.026 277.99 245.042 277.99C245.026 277.99 245.005 277.99 245.005 277.969Z" fill="black"/>
<path d="M498.323 538.537H501.974V632.865H498.323V538.537Z" fill="black"/>
<path d="M650.344 632.844H646.687V543.839H606.245V632.844H602.604V540.182H650.344V632.844Z" fill="black"/>
<path d="M573.526 540.547H476.005L555.963 468.099H653.469L573.526 540.547ZM485.474 536.912H572.12L644.042 471.755H557.391L485.474 536.912Z" fill="black"/>
<path d="M700.422 632.844H696.766V536.911H719.958L647.531 471.281L649.979 468.578L729.427 540.547H700.422V632.844Z" fill="black"/>
<path d="M563.495 586.938H526.411V549.854H563.495V586.938ZM530.068 583.281H559.838V553.505H530.068V583.281Z" fill="black"/>
<path d="M700.151 514.833H696.495V461.432H674.781V491.844H671.125V457.776H700.151V514.833Z" fill="black"/>
<path d="M239.193 710.74L32.0468 692.151H-164.589L-133.375 342.302L-154.026 194.792L-129.333 130.641L-127.38 132.344C-103.818 152.755 -89.5834 181.193 -86.2917 188.214C-84.0782 188.49 -79.6928 189.328 -70.573 191.063C-62.1876 192.672 -50.6876 194.865 -49.5001 194.938C-47.6199 194.938 -39.2136 198.469 -34.349 200.568L-35.7917 203.911C-41.4949 201.448 -48.3855 198.703 -49.573 198.594C-50.4897 198.594 -56.0626 197.573 -71.2345 194.667C-78.2501 193.333 -86.2032 191.813 -87.4792 191.651H-87.5365C-88.7032 191.651 -89.1407 190.698 -89.2917 190.391C-91.8126 184.922 -105.208 157.307 -127.797 136.854L-150.276 195.214L-129.698 342.214L-129.719 342.411L-160.604 688.516H32.2135L238.536 707.031L310.109 673.125L310.437 673.089L445.083 661.047L435.156 633.469L438.594 632.224L450.109 664.245L311.078 676.672L239.193 710.74Z" fill="black"/>
<path d="M19.875 265.448L0.90625 245.344V244.635L2.73437 244.615L4.04687 243.37L22.526 262.948L19.875 265.448Z" fill="black"/>
<path d="M156.547 382.839L139.13 375.203L126.573 362.662L129.151 360.089L141.214 372.13L158.01 379.495L156.547 382.839Z" fill="black"/>
<path d="M749.24 634.672H436.328L382.448 600.005L369.615 586.552C360.297 581.234 316.906 556.375 314.146 553.651C313.563 553.052 311.792 551.276 287.318 517.797L283.953 513.172L286.917 511.031L290.26 515.635C311.406 544.568 315.922 550.255 316.724 551.057C318.807 553.031 351.521 572.005 371.646 583.5L372.068 583.828L384.932 597.318L437.385 631.016H749.24V634.672Z" fill="black"/>
<path d="M139.276 673.62L183.344 651.047L189.557 566.208L143.26 534.682L188.13 551.917L171.224 511.344L190.016 536.969L194.344 480.875L197.979 480.896L201.146 530.516L237.917 514.505L204.526 542.833L208.089 651.104L236.854 667.167L199.37 670.99L199.099 670.932C193.177 669.656 183.672 667.771 181.677 667.771C178.771 667.771 157.135 669.964 152.365 670.953L139.276 673.62ZM181.677 664.115C184.547 664.115 197.104 666.766 199.573 667.318L224.974 664.719L204.505 653.281L200.812 541.188L216.698 527.719L197.818 535.943L195.99 506.995L192.901 547.073L186.339 538.12L194.781 558.385L171.318 549.359L193.359 564.365L186.833 653.354L162.323 665.906C170.292 665.01 179.74 664.115 181.677 664.115Z" fill="black"/>
<path d="M126.245 608.208C122.828 608.208 119.484 607.26 116.359 604.974C108.995 599.563 106.234 588.016 109.411 578.417C93.3125 584.323 79.2187 583.297 70.3385 575.438C63.6875 569.573 61.0885 560.599 63.5781 552.01C66.4843 541.995 75.6406 534.589 88.3229 531.885C84.9218 524.958 85.6718 517.74 90.5156 511.781C95.0833 506.172 102.484 502.917 108.812 503.354C104.901 494.453 107.547 488.682 110.693 485.281C115.224 480.401 123.214 478.172 129.005 478.37C121.458 466.714 121.656 455.417 129.792 447.578C135.99 441.599 145.292 439.333 152.547 441.344C139.641 417.62 141.125 395.469 156.88 381.271C164.042 374.833 173.693 370.521 184.786 368.802C193.76 367.417 201.146 369.953 206.719 376.406C218.417 389.932 218.854 417.51 216.458 430.453C224.922 427.162 231.339 427.599 235.557 431.729C241.245 437.307 240.984 448.089 239.599 454.667C259.062 445.729 272.37 445.109 279.203 452.859C286.401 461.026 283.661 476.474 279.771 484.552C288.12 485.667 291.958 489.615 293.714 492.901C297.078 499.188 295.818 508.438 290.312 517.63C285.693 525.38 279.109 531.302 272.604 533.807C280.682 538.979 285.437 546.724 285.818 555.609C286.276 566.302 280.464 576.792 270.995 582.313C265.146 585.729 253.156 589.912 237.276 580.776C232.25 588.526 224.229 592.912 215.562 592.62C209.422 592.417 204.271 589.75 202.406 585.854L205.693 584.287C206.953 586.938 210.974 588.818 215.693 588.984C223.604 589.24 230.823 584.927 235.083 577.396L236.016 575.729L237.625 576.734C248.771 583.662 259.958 584.521 269.151 579.151C277.469 574.287 282.583 565.115 282.182 555.755C281.797 546.724 276.391 539.307 266.937 534.828L261.198 532.104L267.505 531.354C274.286 530.552 282 524.427 287.172 515.75C291.922 507.781 293.203 499.682 290.479 494.604C288.286 490.505 283.661 488.26 276.698 487.912L273.5 487.75L275.271 485.078C278.693 479.906 283.333 463.057 276.443 455.234C270.505 448.49 257.016 450.005 237.458 459.677L232.906 461.922L234.974 457.297C236.656 453.552 238.573 439.807 232.964 434.307C229.401 430.818 223.224 431.109 214.594 435.167L210.865 436.922L212.073 432.974C215.031 423.38 215.818 392.49 203.922 378.729C199.224 373.302 192.953 371.162 185.297 372.349C174.896 373.958 165.885 377.958 159.271 383.917C143.516 398.099 143.318 420.271 158.76 444.745L165.104 454.813L156.036 447.12C150.297 442.24 138.984 443.682 132.276 450.151C124.656 457.5 125.458 468.318 134.526 479.818L139.458 486.068L132.297 482.578C128.99 480.969 118.349 482.281 113.323 487.693C109.396 491.932 109.505 497.708 113.687 504.912L116.25 509.313L111.479 507.521C106.031 505.495 97.8802 508.38 93.3125 514.01C90.7708 517.135 87.2812 523.682 92.6562 532.162L94.1354 534.5L91.3906 534.938C78.8385 536.948 69.7343 543.672 67.0312 552.958C64.9479 560.162 67.1041 567.708 72.6979 572.625C81.25 580.172 95.6146 580.427 112.12 573.318L117.125 571.162L114.422 575.896C109.557 584.412 111.495 596.839 118.479 601.958C127.068 608.266 140.703 602.49 155.891 586.094L157.828 583.995L158.906 586.641C160.312 590.078 164.208 596 169.906 596.458C175.667 596.875 182.12 591.594 188.589 581.052L191.693 582.953C184.349 594.901 176.943 600.641 169.615 600.078C163.714 599.599 159.255 595.031 156.714 590.479C150.005 597.537 137.724 608.208 126.245 608.208Z" fill="black"/>
<path d="M189.656 429.292L193.297 428.964L198.01 480.818L194.37 481.151L189.656 429.292Z" fill="black"/>
<path d="M193.651 496.375C188.349 489.922 173.969 472.672 171.115 470.401L173.401 467.552C177.057 470.479 194.49 491.662 196.463 494.052L193.651 496.375Z" fill="black"/>
<path d="M246.76 528.797C246.01 528.651 232.526 524.594 226.766 522.859L224.63 522.219L239.068 495.443L242.286 497.177L229.963 520.005C237.276 522.198 246.745 525.031 247.495 525.214L246.76 528.797Z" fill="black"/>
<path d="M226.385 519.526L259.885 499.771L261.745 502.917L228.24 522.672L226.385 519.526Z" fill="black"/>
<path d="M197.208 520.052L223.401 483.172L226.38 485.292L200.187 522.172L197.208 520.052Z" fill="black"/>
<path d="M160.531 502.448L163.5 500.318L180.26 523.677L177.292 525.807L160.531 502.448Z" fill="black"/>
<path d="M114.547 552.63L113.818 549.047L151.833 541.26L122.74 526.349L124.401 523.094L162.724 542.76L114.547 552.63Z" fill="black"/>
<path d="M-16.2397 583.318L-19.474 581.635C-13.5157 570.177 -1.23445 573.755 8.61971 576.646C10.3541 577.156 12.0364 577.651 13.6458 578.052C18.8333 579.349 24.1145 576.042 25.3593 572.224C26.3645 569.151 24.4843 566.464 20.0416 564.672L14.4114 562.391L20.3697 561.203C25.6145 560.161 26.4218 554.568 26.4583 554.328L26.6926 552.594L28.4478 552.74C37.7343 553.635 42.4478 547.75 44.4218 544.167C48.828 536.219 48.2968 525.177 43.177 518.49C40.1249 514.484 34.1301 510.281 22.9843 513.026L10.6458 516.042L21.6301 509.661C27.1666 506.443 29.8176 498.146 27.2968 491.896C24.9218 486.01 18.578 483.875 9.89576 486.01L-1.59904 488.865L8.51034 482.687C22.0676 474.406 21.1926 462.562 20.1666 457.865C18.177 448.599 11.0312 441.417 2.78638 440.396C-3.29695 439.625 -15.0886 441.635 -25.9636 463.552L-29.8178 471.318L-29.4167 462.656C-28.849 450.521 -34.5157 439.917 -44.9324 433.578C-56.047 426.812 -70.3022 426.521 -81.2501 432.828C-90.8438 438.365 -97.5678 450.573 -98.0261 463.203C-98.2813 470.495 -96.6199 484.167 -82.5105 493.672C-77.7553 496.906 -71.9792 499.318 -65.3282 500.891L-66.172 504.432C-73.2605 502.771 -79.4584 500.177 -84.5574 496.687C-95.9063 489.026 -102.156 476.766 -101.662 463.057C-101.167 449 -93.8751 435.88 -83.073 429.646C-70.9949 422.682 -55.2761 422.974 -43.0522 430.432C-33.4376 436.281 -27.4584 445.401 -26.0522 456.057C-15.0157 437.615 -3.17195 435.932 3.24471 436.74C13.0051 437.964 21.4322 446.312 23.7499 457.062C25.7239 466.255 22.8541 475.026 15.9999 481.536H16.0208C23.0572 481.536 28.3385 484.677 30.6978 490.505C33.0728 496.411 31.8645 503.557 28.1926 508.526C35.703 508.146 41.9166 510.776 46.1041 516.24C52.1353 524.135 52.776 536.599 47.6405 545.906C43.802 552.833 37.328 556.594 29.7447 556.432C29.1978 558.276 27.9166 561.24 25.0312 563.156C30.3853 566.906 29.3801 571.729 28.8697 573.318C27.1145 578.672 20.078 583.391 12.802 581.562C11.1562 581.141 9.4218 580.646 7.63013 580.12C-3.68237 576.844 -11.9792 575.146 -16.2397 583.318Z" fill="black"/>
<path d="M16.7344 632.208H-75.3281L-34.349 620.583L-36.0521 562.297L-60.8125 532.49L-33.401 550.583L-27.1302 511.359L-23.5104 511.656V540.073L5.10938 516.646L-18.1927 555.443L-13.0208 620.693L16.7344 632.208ZM-49.0833 628.568H-2.76562L-16.474 623.25L-21.9219 554.568L-8.85416 532.802L-27.151 547.771V534.646L-30.6771 556.76L-42.2812 549.104L-32.4323 560.984L-30.6042 623.359L-49.0833 628.568Z" fill="black"/>
<path d="M-3.11462 523.386L11.5416 509.412L14.0677 512.057L-0.588581 526.031L-3.11462 523.386Z" fill="black"/>
<path d="M-6.00525 530.531L-5.87504 524.833C-5.51046 507.615 -5.45317 507.412 -5.32817 506.995L-1.83858 508.052L-3.57296 507.521L-1.78129 507.797C-1.89067 508.787 -2.13025 520.078 -2.23963 524.885L-2.27608 526.422L16.6614 524.281L17.0625 527.901L-6.00525 530.531Z" fill="black"/>
<path d="M19.0155 198.557L31.7395 185.068L12.4374 186.99L33.9687 173.375L11.0833 167.635L101.958 152.172L119.193 110.339L114.734 150.672L134.599 147.604L162.286 118.906L146.187 148.682L189.594 152.484L140.411 159.573L118.094 168.109L155.542 185.089L154.318 188.505L103.016 174.76L19.0155 198.557ZM41.0937 180.464L30.7343 191.448L103 170.995L133.812 179.261L108.625 167.833L139.677 155.99L157.844 153.38L140.318 151.844L146.349 140.677L136.354 151.037L110.562 155.005L112.703 135.578L104.516 155.427L28.7395 168.313L43.052 171.912L27.3697 181.833L41.0937 180.464Z" fill="black"/>
<path d="M242.557 344.297L235.25 333.167L238.229 321.339L251.953 320.099L263.208 328.964L255.203 342.469H248.807L242.557 344.297ZM239.177 332.49L244.13 340.021L248.552 338.792H253.12L258.443 329.818L250.839 323.828L241.13 324.703L239.177 332.49Z" fill="black"/>
<path d="M73.4426 439.828L73.427 439.552L70.651 374.234L85.6197 356.359L67.4687 369.917L61.3645 358.078L64.0676 365.385V392.438L48.6978 382.802L56.3176 390.917L59.6458 426.813C59.703 427.214 59.7395 427.62 59.7551 427.964C59.8124 428.422 59.828 428.771 59.8489 428.896L56.2291 429.354C56.2083 429.208 56.1718 428.823 56.1197 428.24C56.0989 427.891 56.0624 427.563 56.0103 427.198L52.7916 392.49L26.677 364.693L60.3958 385.839V366.047L47.4739 331.172L50.802 329.708L68.7135 364.438L108.443 334.771L74.3385 375.51L77.0833 439.589L73.4426 439.828Z" fill="black"/>
<path d="M79.0208 357.573L80.9478 326.802L84.5937 327.031L82.6666 357.802L79.0208 357.573Z" fill="black"/>
<path d="M88.4114 353.724L109.198 350.354L109.781 353.958L88.9999 357.333L88.4114 353.724Z" fill="black"/>
<path d="M57.2343 353.984H56.7968L26.2708 338.958L27.8801 335.688L58.0208 350.51L57.2135 352.135L57.2343 353.984Z" fill="black"/>
<path d="M47.3906 330.375L50.1667 297.427L53.8125 297.734L51.0365 330.682L47.3906 330.375Z" fill="black"/>
<path d="M30.4583 356.047L33.9583 354.995L39.4478 373.229L35.9478 374.287L30.4583 356.047Z" fill="black"/>
<path d="M21.052 383.297L46.276 381.224L46.578 384.865L21.3489 386.943L21.052 383.297Z" fill="black"/>
<path d="M113.651 126.766L118.807 85.573L122.427 86.0313L118.24 119.495C123.854 116.276 134.359 110.521 135.844 109.714L137.594 112.912C132.406 115.745 118.604 123.37 117 124.464L113.651 126.766Z" fill="black"/>
<path d="M217.266 176.094L169.964 153.125L194.948 137.698L196.865 140.802L177.531 152.74L218.854 172.807L217.266 176.094Z" fill="black"/>
<path d="M153.37 131.646L162.76 102.224L166.234 103.338L160.458 121.411L197.125 92.5364L199.391 95.4062L153.37 131.646Z" fill="black"/>
<path d="M167.078 206.526L152.036 186.073L183.469 171.068L185.042 174.359L157.588 187.463L170.021 204.37L167.078 206.526Z" fill="black"/>
<path d="M416.677 268.922L405.568 256.844L388.042 249.917L382.63 220.927L386.213 220.25L391.255 247.266L407.687 253.755L417.776 264.719L463.177 249.953H463.469L463.484 251.797L464.031 253.516L416.677 268.922Z" fill="black"/>
<path d="M277.01 278.281L276.151 274.734C275.969 274.792 275.839 274.844 275.839 274.844C276.901 274.224 283.042 268.354 288.599 262.818L286.182 241.656L289.802 241.234L292.417 264.135L291.797 264.755C278.708 277.859 277.557 278.151 277.01 278.281Z" fill="black"/>
<path d="M344.906 386.297L333.573 367.177L343.974 348.589L347.156 350.38L337.797 367.141L346.224 381.359L355.453 376.099L367.094 379.406L366.089 382.912L355.927 380.026L344.906 386.297Z" fill="black"/>
<path d="M411.359 526.401L375.943 511.271L353.021 519.458L336.812 488.589L344.359 447.813L368.245 435.167L369.948 438.401L347.63 450.208L340.609 488.021L354.776 514.964L376.068 507.359L412.802 523.042L411.359 526.401Z" fill="black"/>
<path d="M-23.0938 108.635H-55.1667V90.526C-57.5782 89.703 -62.7709 87.9114 -63.9949 87.5468L-62.9532 84.0572C-61.2917 84.5468 -53.1042 87.3801 -52.7553 87.5103L-51.5313 87.9322V104.984H-24.224L-10.0261 95.3333V81.2968L3.79159 70.3489L6.05721 73.1978L-6.3855 83.052V97.2499L-23.0938 108.635Z" fill="black"/>
<path d="M300.677 128.943L296.292 124.792L291.521 125.469L291.01 121.849L297.536 120.938L299.62 122.912L303.182 115.766L303.802 104.198L307.458 104.396L306.781 116.714L300.677 128.943Z" fill="black"/>
<path d="M491.688 307.76L488.141 295.917L491.651 294.875L494.224 303.484L503.969 301.401L504.734 304.964L491.688 307.76Z" fill="black"/>
<path d="M411.052 655.016C392.719 639.208 366.583 632.443 342.88 637.396L341.984 637.599C338.599 638.328 334.766 639.13 331.125 637.891C327.875 636.755 325.479 634.219 323.359 631.969L322.885 631.474C309.484 617.422 290.719 608.083 271.417 605.87L271.839 602.25C291.979 604.552 311.536 614.297 325.531 628.969L326.01 629.484C327.927 631.51 329.901 633.615 332.297 634.453C334.964 635.37 338.146 634.693 341.198 634.031L342.109 633.833C366.911 628.641 394.234 635.714 413.406 652.255L411.052 655.016Z" fill="black"/>
<path d="M121.641 652.896C116.338 644.599 105.229 640.469 95.7968 643.302L93.4947 643.995L93.4374 641.599C93.276 634.219 89.1093 626.906 82.3072 622.026C75.5103 617.146 67.2291 615.557 60.1926 617.766L59.0989 614.297C67.2291 611.734 76.6978 613.526 84.427 619.068C91.4843 624.109 96.0364 631.547 96.9322 639.26C107.349 637.177 118.974 641.948 124.708 650.937L121.641 652.896Z" fill="black"/>
<path d="M474.906 406.656C459.042 400.297 452.026 386.385 456.156 369.443L459.703 370.302C457.948 377.521 456.047 395.162 476.26 403.276L474.906 406.656Z" fill="black"/>
<path d="M462.13 371.927C460.687 371.927 459.229 371.854 457.729 371.693L455.646 371.474L456.141 369.443C459.062 357.38 467.198 347.146 474.271 346.615C476.427 346.453 480.411 347.094 482.859 353.141C484.542 357.307 484.135 361.255 481.672 364.51C478.161 369.188 470.76 371.927 462.13 371.927ZM460.271 368.219C468.474 368.62 475.75 366.339 478.781 362.318C480.448 360.104 480.703 357.474 479.495 354.51C478.292 351.531 476.646 350.125 474.562 350.271C470.047 350.599 463.359 357.927 460.271 368.219Z" fill="black"/>
<path d="M457.729 371.693C448.479 370.724 440.182 366.901 434.37 360.927C427.318 353.672 424.229 343.51 425.453 331.536L429.088 331.906C426.604 356.083 443.161 366.484 458.094 368.057L457.729 371.693Z" fill="black"/>
<path d="M103.823 69.5417C102.833 67.4948 101.667 65.3385 100.328 63.1302C84.3541 36.7917 47.9687 5.24479 25.0104 4.07813L25.1927 0.4375C36.7656 1.02604 51.9323 8.52083 67.8906 21.5521C82.1458 33.1927 95.4479 48.0313 103.474 61.2448C104.865 63.5677 106.104 65.8177 107.13 67.974L103.823 69.5417Z" fill="black"/>
</svg>
