<svg width="828" height="614" viewBox="0 0 828 614" fill="none" xmlns="http://www.w3.org/2000/svg">
<path d="M526.706 240.974C525.899 242.885 526.576 244.661 528.472 245.604C532.654 247.703 591.524 247.865 610.748 247.865C612.217 247.865 613.467 247.865 614.42 247.865C653.342 247.818 697.29 247.115 701.784 245.693C705.029 244.661 705.675 242.401 705.206 240.625C703.972 235.937 694.691 230.828 683.586 231.974C686.347 227.021 685.097 224.26 683.394 222.776C680.779 220.516 675.566 220.589 671.941 222.057C671.79 220.031 670.852 218.271 669.175 216.948C667.107 215.318 663.977 214.568 661.274 214.859C664.461 205.214 663.951 197.62 659.717 192.24C651.79 182.167 633.456 183.724 628.024 184.427C618.888 185.63 611.722 190.349 608.868 197.031C607.388 200.51 607.138 204.286 608.107 208.12C602.612 203.932 596.592 202.859 591.04 205.286C584.868 207.99 580.993 214.464 580.951 221.557C573.06 215.182 564.956 216.714 560.034 220.339C555.467 223.719 553.352 228.844 554.362 233.411C541.206 230.167 528.805 236.01 526.706 240.974Z" fill="black"/>
<path d="M100.529 320.891C103.289 322.255 137.102 322.448 154.685 322.448C155.831 322.448 156.904 322.448 157.899 322.448C177.888 322.417 212.644 322.083 216.138 320.979C218.618 320.203 219.118 318.411 218.737 317.016C217.899 313.854 211.951 310.391 204.711 310.828C206.206 307.557 205.05 305.75 204.066 304.896C202.3 303.37 199.055 303.297 196.545 304.12C196.31 302.901 195.649 301.844 194.607 301.005C193.3 299.974 191.461 299.401 189.727 299.464C191.654 293.219 191.211 288.255 188.404 284.672C183.133 277.958 171.592 278.667 166.873 279.281C160.618 280.104 155.711 283.349 153.743 287.964C152.878 289.99 152.628 292.13 152.951 294.333C148.763 291.5 144.68 291.443 141.758 292.693C137.779 294.396 135.342 298.505 135.164 303.484C129.888 299.755 124.618 300.859 121.373 303.281C118.451 305.453 116.993 308.687 117.362 311.698C108.638 309.875 100.545 313.844 99.1228 317.187C98.4874 318.687 99.0343 320.156 100.529 320.891Z" fill="black"/>
<mask id="mask0_11_566" style="mask-type:luminance" maskUnits="userSpaceOnUse" x="137" y="7" width="597" height="607">
<path d="M137.196 7.42188H733.196V613.641H137.196V7.42188Z" fill="white"/>
</mask>
<g mask="url(#mask0_11_566)">
<path d="M702.68 506.057C707.279 502.078 713.987 500.156 719.909 498.448C726.18 496.646 731.128 495.219 732.54 491.766C733.217 490.12 732.951 488.229 731.774 486.125C728.987 481.161 719.191 477.828 709.732 474.615C703.753 472.573 694.717 469.5 694.618 467.474C694.602 467.078 695.336 466.078 698.144 464.74C725.961 464.641 728.722 462.068 729.748 461.099L731.144 459.792L729.529 458.781C711.55 447.557 698.961 437.234 689.784 429.698C680.368 421.974 674.685 417.302 670.029 417.302C664.67 417.302 655.706 425.188 645.342 434.307C638.571 440.255 631.607 446.38 625.836 450.01C624.378 449.318 622.909 448.583 621.441 447.823L621.383 434.969C623.998 437.13 627.217 438.026 630.503 437.396C634.571 436.615 637.805 433.734 638.571 430.24C638.894 428.729 638.951 426.068 636.555 423.365C639.711 422.161 642.389 419.432 643.68 416.771C645.045 413.995 645.019 411.281 643.607 409.328C642.154 407.313 639.508 406.302 635.706 406.286C636.925 404.318 637.394 401.865 636.998 399.234C636.336 394.875 633.441 391.302 629.784 390.365C627.613 389.807 623.482 389.776 618.696 394.885C617.269 391.479 614.628 389.172 611.06 388.276C605.889 386.984 599.779 389.073 596.18 393.375C594.196 395.755 591.435 400.661 593.961 407.87C590.982 408.635 587.56 410.943 585.753 414.63C584.842 416.495 583.889 419.724 585.133 423.865C578.951 418.813 573.019 413.406 567.404 407.693C567.54 406.948 567.644 406.182 567.67 405.328C567.951 397.911 563.133 390.938 553.321 384.62C520.758 363.604 493.732 337.021 428.258 242.755C426.889 240.786 425.071 239.479 422.941 238.844C429.961 234.016 437.097 225.495 439.8 214.745C442.253 204.99 440.493 195.255 434.717 186.427C447.732 184.208 455.253 177.26 459.336 171.651C464.826 164.099 467.206 154.422 465.81 145.505C484.951 138.411 489.123 118.26 488.211 107.995C501.222 109.948 515.972 105.276 524.711 96.2708C529.675 91.1458 534.961 82.3177 531.878 69.4115C528.644 55.8802 516.086 45.099 500.639 42.6042C486.185 40.2708 472.701 45.7917 463.784 57.4688C461.977 34.8646 446.425 16.724 423.118 10.599C400.024 4.53647 369.404 11.4375 352.175 40.2396C341.274 30.4427 328.925 27.4896 317.248 31.9271C306.097 36.1719 297.123 46.8073 294.743 58.099C284.362 44.5729 269.441 38.5781 253.31 41.5781C234.352 45.1146 218.279 60.2865 214.211 78.474C210.732 94.1146 215.993 110.302 228.284 121.771C239.784 132.495 255.029 136.99 268.498 133.724C269.029 141.953 271.92 147.917 277.149 151.453C284.024 156.125 293.321 155.359 298.961 153.906C296.024 165.922 297.404 176.099 303.102 184.193C311.373 195.958 328.045 202.964 352.675 205.063C345.915 211.099 342.977 219.031 344.363 227.74C345.831 236.964 351.732 244.734 357.404 248.146C355.04 249.479 352.774 251.536 350.659 254.354C350.118 255.078 349.383 256.073 348.472 257.323C285.3 342.969 239.107 378.453 211.467 393.141C200.404 397.224 198.998 405.729 199.04 409.974C195.487 412.5 192.019 414.906 188.54 417.318C185.691 415.641 169.196 406.141 161.029 405.417C156.18 404.979 152.185 407.005 147.972 409.151C144.316 411 140.54 412.922 135.956 413.26C131.816 413.568 127.336 408.516 122.56 403.172C117.008 396.943 110.722 389.896 103.206 389.745C103.159 389.745 103.118 389.745 103.071 389.745C94.0656 389.745 70.701 406.464 50.076 421.224C39.0031 429.156 29.4302 436 24.3729 438.583C10.3469 439.479 -0.726044 444.49 -1.42917 450.333C-1.65313 452.109 -1.04896 455.385 5.38333 457.354C9.53958 458.63 15.7844 459.719 22.3781 460.88C33.8469 462.891 48.1229 465.391 50.4875 469.104C50.7375 469.484 50.8 469.839 50.6802 470.234C49.8 473.453 38.1385 477.844 28.7687 481.385C14.7531 486.672 2.66458 491.224 2.82604 497.229C3.21146 511.406 44.8208 513.547 62.6958 513.828C79.701 514.094 82.1542 518.25 82.4198 520.026C82.9771 523.818 76.6333 529.62 69.3469 531.969C51.3 537.771 33.3781 547.479 34.024 556.115C34.4094 561.208 40.4719 564.646 52.5604 566.615C82.2583 571.49 137.644 577.031 163.128 578.339C155.284 581.026 151.144 584.609 151.498 588.604C152.097 595.318 164.904 600.911 189.566 605.229C218.68 610.328 261.274 613.073 316.191 613.396C320.081 613.427 323.883 613.427 327.633 613.427C373.399 613.427 407.915 611.708 430.342 608.286C450.139 605.271 460.847 600.911 463.066 594.979C465.253 589.104 459.04 583.771 454.826 580.156C453.488 579.01 452.826 578 453.05 577.443C454.05 574.87 466.415 572.651 488.107 573.385C489.738 573.443 491.456 573.49 493.264 573.521C508.217 573.854 528.706 574.313 552.982 586.224C580.54 599.734 645.149 592.891 675.477 587.385C693.56 584.094 712.316 574.885 713.154 563.635C713.753 555.583 705.649 548.141 689.008 541.469C709.274 540.307 730.133 534.625 731.836 526.87C732.508 523.745 730.279 520.969 725.18 518.63C718.029 515.339 711.42 513.74 706.586 512.578C703.56 511.844 699.404 510.849 699.211 510.036C699.227 510.068 699.066 509.188 702.68 506.057ZM609.842 441.344C607.55 439.964 605.258 438.51 602.951 436.995C605.211 435.354 607.915 432.974 609.842 431.198V441.344Z" fill="black"/>
</g>
<path d="M201.566 552.823L199.524 519.396H199.539C211.847 528.151 221.263 523.172 226.211 515.24C223.467 527.74 232.805 542.807 249.831 539.984V571.901C253.592 571.964 256.633 573.62 257.336 576.073C258.217 575.401 259.055 574.854 259.816 574.417L258.305 549.359L258.659 549.344C267.086 552.323 274.316 549.859 277.914 545.625C321.17 552.807 493.909 547.021 519.878 531.969C545.862 516.896 451.831 517.411 460.128 504.411C468.399 491.505 581.993 496.234 608.295 487.01C611.086 494.057 618.696 500.505 628.477 499.818C613.732 505.984 626.789 522.745 638.816 514.693H638.904L637.628 537.812C638.816 539.266 639.477 541.339 639.477 543.922C643.342 541.792 646.633 541 649.263 541.057V541.042L648.263 515.177C667.357 535.448 695.748 497.891 669.383 492.104C681.498 488.24 680.149 463.271 657.81 475.833C662.482 472.073 663.8 467.135 663.185 462.437C663.816 462.464 681.076 463.333 697.789 463.286C678.607 472.115 724.592 476.359 730.498 486.859C736.404 497.349 713.154 495.089 701.727 504.958C690.3 514.812 705.368 511.182 724.592 520.026C743.821 528.854 712.638 540.281 681.472 540.281C737.576 559.505 703.81 580.802 675.243 586.005C646.659 591.203 581.201 598.474 553.659 584.958C526.118 571.464 503.263 572.49 488.196 571.974C473.128 571.464 442.987 571.974 453.899 581.318C464.816 590.672 491.31 613.016 316.206 611.984C141.128 610.943 131.758 584.958 173.852 577.161C159.31 577.687 87.6072 570.932 52.7947 565.203C17.9718 559.505 41.8832 542.349 69.7895 533.391C82.7582 529.219 96.6072 512.917 62.7114 512.401C28.8103 511.891 4.53427 506.589 4.28427 497.229C4.03427 487.875 49.8155 479.021 52.0916 470.661C54.352 462.318 18.9561 460.042 5.81031 455.99C-7.33552 451.948 3.03427 441.328 24.7843 440.052C31.352 446.12 70.3155 439.802 81.7009 443.094C93.0864 446.37 76.8832 450.672 74.3572 453.964C71.8311 457.25 82.2895 459.115 96.6957 460.115C99.9874 462.099 104.862 461.792 108.019 458.677C107.461 463.156 106.758 468.281 106.493 468.427L107.05 469.484C89.3676 478.781 72.4926 486.141 59.4353 488.859C67.7895 499.745 145.164 493.589 165.227 495.349H165.243C166.727 496.937 168.654 498.406 171.06 499.745C157.93 509.865 168.946 530.042 190.888 520.479V547.802H188.451C192.196 547.802 195.633 550.724 194.472 557.302C197.175 554.76 199.571 553.38 201.566 552.823Z" fill="#3A9980"/>
<path d="M697.789 463.286C681.086 463.333 663.816 462.464 663.185 462.437C662.274 455.755 657.425 449.526 652.581 447.734C647.232 445.781 636.967 447.266 631.93 454.286C631.93 454.286 629.753 453.474 625.935 451.698C640.138 443.094 661.717 418.786 670.029 418.786C678.357 418.786 692.899 437.656 728.748 460.042C726.092 462.51 712.138 463.245 697.789 463.286Z" fill="#87AAD2"/>
<path d="M608.284 487.021C604.493 477.464 609.529 466.781 629.977 471.177C627.935 463.656 629.123 458.146 631.915 454.297C636.967 447.276 647.232 445.781 652.566 447.75C657.415 449.542 662.258 455.766 663.17 462.453C663.8 467.167 662.467 472.083 657.795 475.844C680.133 463.271 681.487 488.255 669.368 492.12C695.732 497.891 667.342 535.464 648.248 515.193L647.659 500.068L658.045 486.391L647.118 491.87L643.81 474.01L640.758 492.766L628.435 489.505L639.711 499.536L638.862 514.724H638.774C626.743 522.771 613.685 506.016 628.435 499.844C618.696 500.521 611.086 494.073 608.284 487.021Z" fill="#3A9980"/>
<path d="M631.93 408.047C650.805 405.448 642.227 422.297 633.415 422.573C644.842 430.651 627.951 443.193 619.899 431.208L628.477 418.786L618.592 422.896L620.68 405.229L611.321 421.677L603.889 419.594L611.321 427.818C611.321 427.818 603.92 435.031 600.295 437.01C596.93 434.734 593.389 432.208 589.748 429.417C580.628 417.641 590.305 409.104 596.019 409.104C587.691 390.656 614.717 381.568 618.092 397.927C630.8 381.302 641.607 402.083 631.93 408.047Z" fill="#3A9980"/>
<path d="M625.935 451.698C629.758 453.49 631.93 454.286 631.93 454.286C629.138 458.13 627.935 463.641 629.993 471.161C609.545 466.755 604.508 477.432 608.295 487.01C581.993 496.234 468.399 491.505 460.128 504.411C451.816 517.396 545.857 516.896 519.878 531.969C493.909 547.021 321.17 552.807 277.914 545.625C281.763 541.104 281.425 534.583 273.888 530.589C283.597 528.823 295.071 517.573 280.368 512.714C289.279 499.698 266.826 485.552 255.118 503.458C253.357 499.698 238.357 495.5 229.196 508.437C231.086 501.625 230.045 494.766 225.258 492.927C238.138 484.969 230.191 467.531 212.743 472.469C222.612 452.479 189.993 434.557 183.941 469.823C170.383 462.026 152.597 482.104 165.217 495.38C145.138 493.604 67.7791 499.771 59.4197 488.891C72.477 486.187 89.352 478.828 107.039 469.516C109.873 468.031 112.737 466.49 115.628 464.891C121.43 461.687 127.279 458.339 133.034 454.917C145.43 447.542 157.503 439.875 168.253 432.797C175.748 427.875 182.592 423.266 188.451 419.224C193.196 415.964 197.279 413.099 200.539 410.781C200.758 414.818 202.331 418.375 203.904 419.958C207.763 423.839 214.477 423.12 219.133 420.193C223.774 417.255 227.066 412.661 230.941 408.781C236.628 403.099 243.633 398.911 250.55 394.802C261.347 388.396 273.993 368.349 282.935 375.542C291.883 382.724 270.185 394.036 269.628 402.26C269.039 410.5 278.149 407.047 276.664 411.63C275.164 416.229 270.748 419.078 266.748 421.766C256.795 428.479 247.081 437.422 245.013 449.26C243.868 455.708 247.685 464.432 254.133 463.245C256.982 462.714 259.097 460.365 260.935 458.104C282.967 431.198 300.092 400.276 311.227 367.318C312.883 362.411 316.909 356.26 321.592 358.464C323.446 359.344 324.472 361.339 325.133 363.297C327.644 370.859 328.691 385.297 324.696 394.286C316.571 412.589 298.769 425.526 308.493 432.281C319.008 439.599 326.441 409.573 334.404 411.615C342.378 413.656 330.805 437.88 324.826 449.703C318.831 461.526 310.357 471.969 304.456 483.839C300.456 491.87 298.388 503.167 305.571 508.542C311.857 513.271 321.446 509.656 326.102 503.312C330.774 496.995 331.993 488.875 333.857 481.234C336.779 469.208 341.555 457.635 347.946 447.042C354.17 436.745 362.159 426.729 363.295 414.745C364.305 403.937 360.826 389.953 370.237 384.547C377.378 380.437 386.998 386.12 389.774 393.859C392.519 401.615 390.305 410.234 387.321 417.891C385.972 421.37 385.222 426.583 388.789 427.698C392.43 428.859 394.722 423.953 397.602 421.427C402.274 417.318 410.175 419.932 413.701 425.073C417.211 430.198 417.576 436.776 417.81 442.974C418.446 459.411 419.076 475.818 419.706 492.25C419.987 499.755 420.487 507.865 425.232 513.682C429.987 519.5 440.664 520.833 444.399 514.312C446.248 511.052 445.852 507.016 445.383 503.297C441.769 474.833 438.17 446.354 434.571 417.891C432.237 399.469 429.826 380.802 422.717 363.661C420.175 357.505 418.373 348.109 424.748 346.182C427.566 345.333 430.56 346.771 432.909 348.547C438.524 352.792 456.045 373.385 459.644 379.453C477.446 409.354 467.836 412.411 485.638 442.328C486.847 444.354 491.399 455.193 503.81 460.13C510.67 462.865 517.378 456.5 524.696 455.578C533.097 454.536 539.737 461.964 546.269 467.344C552.795 472.719 564.305 475.568 568.388 468.167C574.576 454.312 538.31 435.5 519.982 422.484C501.633 409.49 477.576 378.583 483.586 368.948C489.592 359.312 497.316 367.979 502.529 372.417C507.748 376.839 511.123 382.974 515.003 388.599C524.487 402.292 529.571 409.427 544.743 416.344C555.555 421.297 563.998 416.536 565.862 408.24C574.003 416.568 582.123 423.573 589.763 429.417C593.404 432.208 596.946 434.734 600.305 437.01C604.243 439.656 607.946 441.974 611.336 443.958C614.524 445.823 617.43 447.427 620.019 448.76C622.248 449.937 624.248 450.922 625.935 451.698Z" fill="#87AAD2"/>
<path d="M628.461 418.786L619.883 431.208L619.972 448.745C617.404 447.411 614.482 445.823 611.295 443.943V427.786L603.862 419.563L611.295 421.651L620.649 405.198L618.566 422.87L628.461 418.786Z" fill="#D14256"/>
<path d="M200.524 410.766C200.201 404.875 202.685 397.943 212.071 394.521C276.737 360.208 342.732 267.411 351.836 255.281C354.805 251.328 357.915 249.083 361.014 248.26C367.404 246.542 373.659 251.005 377.993 259.453C380.639 251.109 396.253 241.005 404.139 254.901C403.389 248.865 410.909 241.297 418.003 240.052C421.441 239.448 424.79 240.344 427.05 243.589C489.93 334.109 517.925 363.531 552.529 385.854C562.915 392.552 566.435 399.234 566.201 405.286C566.159 406.302 566.04 407.271 565.821 408.208C563.956 416.505 555.508 421.25 544.701 416.318C529.529 409.401 524.461 402.26 514.956 388.573C511.081 382.964 507.701 376.807 502.487 372.385C497.274 367.948 489.56 359.286 483.54 368.922C477.534 378.557 501.592 409.458 519.935 422.458C538.269 435.453 574.529 454.271 568.347 468.135C564.264 475.536 552.748 472.688 546.227 467.313C539.691 461.938 533.05 454.505 524.649 455.547C517.336 456.474 510.623 462.833 503.764 460.099C491.352 455.151 486.8 444.328 485.597 442.297C467.795 412.38 477.399 409.323 459.597 379.422C456.003 373.37 438.493 352.766 432.868 348.521C430.534 346.729 427.524 345.302 424.701 346.156C418.326 348.078 420.118 357.479 422.675 363.63C429.784 380.771 432.175 399.443 434.529 417.859C438.128 446.323 441.722 474.802 445.336 503.266C445.805 506.984 446.217 511.021 444.352 514.281C440.623 520.802 429.946 519.484 425.185 513.651C420.425 507.833 419.93 499.729 419.665 492.224C419.019 475.786 418.383 459.38 417.769 442.948C417.534 436.745 417.165 430.151 413.654 425.042C410.133 419.901 402.227 417.286 397.56 421.401C394.696 423.927 392.389 428.828 388.748 427.672C385.175 426.542 385.941 421.339 387.279 417.859C390.258 410.193 392.493 401.573 389.732 393.828C386.967 386.073 377.331 380.406 370.196 384.516C360.779 389.922 364.264 403.906 363.248 414.714C362.118 426.703 354.128 436.719 347.899 447.016C341.508 457.604 336.737 469.177 333.816 481.208C331.961 488.844 330.732 496.969 326.06 503.281C321.389 509.615 311.81 513.224 305.524 508.51C298.342 503.12 300.415 491.839 304.409 483.807C310.316 471.938 318.79 461.495 324.779 449.672C330.758 437.849 342.331 413.646 334.357 411.589C326.399 409.563 318.967 439.568 308.451 432.255C298.727 425.495 316.529 412.557 324.649 394.255C328.644 385.266 327.602 370.828 325.092 363.266C324.43 361.328 323.399 359.313 321.55 358.432C316.862 356.229 312.826 362.385 311.18 367.292C300.05 400.25 282.92 431.182 260.889 458.073C259.055 460.323 256.941 462.688 254.092 463.214C247.654 464.406 243.836 455.677 244.967 449.234C247.04 437.396 256.748 428.464 266.706 421.734C270.701 419.047 275.139 416.198 276.623 411.604C278.102 407.005 268.998 410.458 269.586 402.229C270.159 394.005 291.836 382.698 282.894 375.516C273.93 368.318 261.3 388.365 250.508 394.771C243.586 398.88 236.597 403.068 230.899 408.755C227.019 412.63 223.732 417.229 219.092 420.167C214.435 423.089 207.722 423.807 203.857 419.932C202.316 418.359 200.743 414.802 200.524 410.766Z" fill="#D14256"/>
<path d="M356.534 203.932C343.3 203.094 287.389 198.953 301.076 151.776C294.451 154.245 270.435 158.385 269.894 131.891C242.045 140.172 208.222 112.193 215.654 78.8385C223.097 45.4844 271.144 25.1719 295.67 61.9479C297.331 40.9427 325.691 16.7969 352.524 42.5885C383.003 -11.375 462.493 6.33853 462.493 61.9479C481.868 30.651 524.18 43.4583 530.467 69.776C536.753 96.0989 507.394 110.547 486.524 106.229C488.18 115.354 484.862 137.693 464.17 144.568C467.487 161.37 456.722 182.417 432.175 185.339C449.362 208.734 432.441 233.193 418.019 240.062C410.925 241.312 403.404 248.88 404.154 254.917C396.269 241.021 380.654 251.125 378.008 259.469C373.659 251.021 367.42 246.573 361.029 248.276C349.665 244.797 335.019 219.078 356.534 203.932Z" fill="#CADBEA"/>
<path d="M201.889 312.682C212.54 310.391 221.175 317.865 215.696 319.583C210.217 321.318 105.201 321.583 101.175 319.583C97.1385 317.573 108.081 309.802 119.581 313.828C115.555 306.906 127.128 296.583 136.852 306.922C134.633 294.188 147.342 287.182 157.269 300.682C150.368 291.281 156.107 282.188 167.05 280.734C177.977 279.297 195.253 281.323 187.467 301.443C190.05 300.005 196.399 301.443 194.956 306.63C197.571 304.047 208.498 303.766 201.889 312.682Z" fill="#CADBEA"/>
<path d="M167.743 432.016C167.889 429.49 165.67 426.495 160.899 430.255C162.378 419.359 146.31 418.182 143.711 434.943C141.071 431.682 137.368 430.521 136.295 434.927C135.545 429.828 130.67 425.745 123.076 428.391C127.732 421.411 113.941 411.12 109.961 426.714C85.8729 419.74 86.05 442.005 93.8312 449.745C92.0708 454.828 93.7739 458.38 96.6802 460.13C82.2739 459.115 71.8156 457.266 74.3416 453.974C76.8677 450.688 93.0708 446.38 81.6854 443.109C70.3052 439.818 31.3521 446.13 24.7739 440.068C38.9302 432.99 90.0135 390.995 103.175 391.245C116.321 391.51 125.941 415.526 136.06 414.776C146.18 414.01 152.362 406.167 160.899 406.932C169.446 407.693 188.201 418.87 188.201 418.87L188.451 419.224C182.607 423.266 175.748 427.891 168.253 432.797L167.743 432.016Z" fill="#87AAD2"/>
<path d="M154.685 322.448C137.086 322.448 103.289 322.271 100.529 320.891C99.0343 320.141 98.4874 318.687 99.1228 317.177C100.529 313.828 108.638 309.859 117.362 311.682C116.998 308.672 118.451 305.437 121.373 303.266C124.618 300.844 129.888 299.755 135.164 303.474C135.357 298.505 137.779 294.38 141.758 292.677C144.68 291.427 148.763 291.484 152.951 294.323C152.628 292.13 152.878 289.974 153.743 287.948C155.711 283.333 160.618 280.089 166.873 279.266C171.592 278.651 183.118 277.932 188.404 284.656C191.211 288.224 191.654 293.193 189.727 299.448C191.461 299.391 193.3 299.964 194.607 300.99C195.664 301.812 196.31 302.885 196.545 304.104C199.055 303.281 202.3 303.37 204.066 304.88C205.05 305.734 206.206 307.526 204.711 310.818C211.951 310.375 217.899 313.839 218.737 317C219.102 318.411 218.618 320.187 216.138 320.964C212.644 322.068 177.878 322.406 157.899 322.432C156.904 322.448 155.831 322.448 154.685 322.448ZM101.852 318.25C108.373 320.026 209.675 319.953 215.253 318.187C215.727 318.042 215.904 317.88 215.93 317.839C215.93 317.76 215.816 317.307 215.05 316.615C213.154 314.911 208.159 312.828 202.196 314.12L198.409 314.943L200.717 311.828C202.404 309.552 202.946 307.792 202.17 307.13C200.904 306.042 197.159 306.542 196.013 307.687L192.092 311.609L193.576 306.26C193.93 304.969 193.68 304.016 192.8 303.323C191.508 302.312 189.227 302.177 188.201 302.75L184.675 304.703L186.128 300.948C188.612 294.526 188.597 289.682 186.118 286.505C181.633 280.807 170.56 281.776 167.269 282.219C162.045 282.911 158.003 285.495 156.446 289.151C155.066 292.38 155.784 296.187 158.472 299.844L156.123 301.578C151.248 294.969 146.107 294.057 142.935 295.422C139.274 296.995 137.425 301.516 138.321 306.703L139.159 311.521L135.81 307.964C131.024 302.87 126.118 303.443 123.133 305.661C120.842 307.365 119.331 310.479 120.857 313.135L122.842 316.557L119.112 315.25C113.279 313.208 107.211 314.443 103.774 316.557C102.529 317.292 102.013 317.937 101.852 318.25Z" fill="black"/>
<path d="M230.602 508.833L227.784 508.057C229.31 502.578 229.003 495.938 224.727 494.307L221.967 493.25L224.477 491.693C230.514 487.964 230.915 482.646 229.399 479.224C227.461 474.818 221.675 471.469 213.139 473.88L209.967 474.776L211.42 471.823C214.112 466.385 213.566 460.526 209.967 456.12C206.769 452.198 201.862 450.406 197.482 451.568C191.446 453.151 187.144 459.734 185.368 470.073L185.014 472.146L183.191 471.104C176.685 467.354 169.607 470.88 165.79 475.745C162.191 480.328 160.149 487.964 166.258 494.38L164.144 496.396C156.737 488.609 159.165 479.427 163.498 473.922C167.727 468.547 175.378 464.578 182.857 467.667C185.795 453.651 192.737 449.792 196.748 448.734C202.243 447.292 208.321 449.469 212.243 454.271C215.987 458.854 217.003 464.729 215.154 470.427C223.878 468.984 229.868 472.995 232.086 478.036C234.014 482.411 233.352 488.432 227.946 492.813C231.487 495.719 232.571 501.771 230.602 508.833Z" fill="black"/>
<path d="M96.5811 461.583C77.1749 460.219 73.6384 458 72.7426 456.005C72.4926 455.443 72.227 454.344 73.1801 453.078C74.1645 451.786 76.3259 450.656 78.8051 449.333C80.5551 448.411 83.7738 446.719 84.1957 445.807C84.0343 445.635 83.3884 445.104 81.2738 444.5C76.5603 443.135 66.2218 443.531 56.2166 443.901C41.6749 444.443 27.9301 444.974 23.7738 441.125L22.2166 439.682L24.1124 438.745C29.102 436.25 38.8103 429.302 50.0655 421.25C70.6853 406.49 94.0551 389.776 103.055 389.776C103.102 389.776 103.144 389.776 103.191 389.776C110.696 389.922 116.998 396.99 122.545 403.203C127.321 408.547 131.816 413.615 135.941 413.292C140.524 412.953 144.3 411.031 147.956 409.177C152.17 407.036 156.17 405.005 161.013 405.448C169.784 406.224 188.159 417.125 188.935 417.578L187.435 420.094C187.248 419.99 168.873 409.078 160.763 408.354C156.753 408.005 153.289 409.75 149.279 411.776C145.55 413.672 141.316 415.802 136.164 416.198C130.612 416.594 125.633 411.042 120.357 405.125C114.956 399.057 109.357 392.802 103.128 392.672C103.102 392.672 103.055 392.672 103.029 392.672C94.9926 392.672 70.0082 410.547 51.753 423.604C41.9561 430.609 33.3207 436.792 27.7947 440.021C33.2009 441.813 45.7322 441.344 56.102 440.948C66.8051 440.536 76.9145 440.172 82.0811 441.651C84.3155 442.297 86.9145 443.313 87.1332 445.458C87.3988 448.057 84.0499 449.818 80.1749 451.875C78.2634 452.891 76.0916 454.036 75.4874 454.813C75.4718 454.828 75.4718 454.844 75.4561 454.844C75.9301 455.354 78.8936 457.37 96.7686 458.615L96.5811 461.583Z" fill="black"/>
<mask id="mask1_11_566" style="mask-type:luminance" maskUnits="userSpaceOnUse" x="137" y="438" width="597" height="176">
<path d="M137.196 438.089H733.196V613.641H137.196V438.089Z" fill="white"/>
</mask>
<g mask="url(#mask1_11_566)">
<path d="M327.633 613.484C323.883 613.484 320.081 613.469 316.191 613.453C261.274 613.13 218.665 610.385 189.566 605.286C164.904 600.969 152.086 595.375 151.498 588.661C151.144 584.667 155.284 581.083 163.128 578.396C137.644 577.104 82.2584 571.552 52.5604 566.672C40.4719 564.693 34.4042 561.255 34.024 556.172C33.3781 547.536 51.3 537.828 69.3469 532.026C76.6334 529.693 82.9927 523.891 82.4198 520.083C82.1542 518.307 79.7011 514.135 62.6959 513.885C44.8209 513.625 3.19586 511.464 2.82606 497.292C2.6646 491.297 14.7688 486.729 28.7688 481.443C38.1386 477.901 49.8 473.51 50.6802 470.292C50.7844 469.896 50.7375 469.557 50.4875 469.161C48.1229 465.432 33.8469 462.938 22.3781 460.938C15.7688 459.776 9.5396 458.693 5.38336 457.411C-1.03331 455.443 -1.63748 452.172 -1.42915 450.391C-0.72602 444.516 10.5084 439.448 24.6959 438.625L24.8729 441.552C10.2167 442.375 1.85731 447.411 1.46148 450.714C1.21148 452.818 4.70627 454.125 6.23752 454.594C10.2167 455.828 16.3677 456.901 22.8781 458.031C39.1959 460.88 50.1073 463.099 52.9563 467.578C53.649 468.651 53.8365 469.854 53.5032 471.042C52.3104 475.391 43.7479 478.901 29.7948 484.161C19.6021 488.005 5.63335 493.266 5.75315 497.188C5.98752 506.089 34.5396 510.51 62.7375 510.932C76.899 511.156 84.4927 514.078 85.3156 519.63C86.1959 525.521 78.2323 532.219 70.2427 534.786C50.8261 541.031 36.5084 550.12 36.9459 555.938C37.1959 559.328 42.9094 562.12 53.0448 563.781C87.3729 569.422 159.545 576.219 173.805 575.708L174.128 578.599C160.149 581.188 154.154 585.37 154.42 588.38C154.581 590.234 157.639 596.708 190.081 602.396C219.029 607.464 261.461 610.193 316.217 610.516C429.972 611.161 457.394 601.911 460.347 593.995C461.831 590.042 456.529 585.505 453.034 582.495C450.493 580.318 449.628 578.292 450.347 576.411C452.753 570.229 475.123 570.052 488.243 570.495C489.857 570.552 491.56 570.583 493.368 570.625C508.597 570.964 529.456 571.432 554.305 583.625C566.014 589.365 586.649 591.906 614.008 591.01C636.909 590.25 660.524 587.161 674.977 584.536C691.545 581.526 709.54 573.109 710.258 563.443C710.654 558.198 705.899 550.167 680.988 541.63L672.675 538.781H681.456C705.586 538.781 727.753 531.896 728.988 526.271C729.441 524.167 726.05 522.26 723.977 521.318C717.076 518.146 710.628 516.589 705.925 515.443C700.357 514.094 696.998 513.286 696.394 510.76C695.941 508.891 697.217 506.88 700.769 503.813C705.852 499.422 712.889 497.391 719.102 495.599C724.17 494.146 728.956 492.766 729.836 490.62C729.956 490.328 730.305 489.464 729.238 487.536C726.988 483.557 716.899 480.12 708.79 477.344C698.008 473.672 691.883 471.411 691.696 467.594C691.545 464.844 694.764 463.036 697.185 461.922L697.79 463.214L698.8 464.318L698.42 464.578C695.378 465.974 694.602 467.031 694.618 467.443C694.717 469.474 703.753 472.542 709.732 474.583C719.201 477.813 728.988 481.146 731.774 486.099C732.951 488.198 733.217 490.094 732.54 491.74C731.128 495.188 726.18 496.615 719.909 498.422C713.988 500.125 707.279 502.047 702.68 506.031C699.05 509.156 699.227 510.036 699.227 510.068C699.42 510.859 703.576 511.875 706.602 512.609C711.435 513.771 718.045 515.37 725.196 518.661C730.295 520.995 732.524 523.771 731.847 526.901C730.159 534.656 709.305 540.323 689.019 541.5C705.659 548.182 713.769 555.63 713.165 563.661C712.316 574.911 693.571 584.125 675.493 587.411C645.175 592.922 580.566 599.766 552.998 586.255C528.722 574.339 508.232 573.885 493.279 573.547C491.472 573.505 489.753 573.474 488.123 573.417C466.43 572.682 454.06 574.901 453.066 577.469C452.842 578.042 453.503 579.057 454.842 580.188C459.04 583.802 465.269 589.13 463.081 595.005C460.863 600.953 450.154 605.302 430.357 608.313C407.915 611.75 373.399 613.484 327.633 613.484Z" fill="black"/>
</g>
<path d="M696.524 464.755C682.045 464.755 667.487 464.109 663.29 463.922H663.128L663.185 460.995L663.42 461.01C667.737 461.219 682.967 461.906 697.774 461.849C715.326 461.792 722.638 460.734 725.696 459.88C708.748 449.115 696.758 439.276 687.904 432.005C679.295 424.938 673.612 420.266 669.998 420.266C665.743 420.266 656.342 428.536 647.232 436.542C640.123 442.797 632.769 449.276 626.654 452.964L626.305 453.167H625.894V451.698L625.144 450.464C631.019 446.911 638.274 440.521 645.295 434.354C655.665 425.234 664.638 417.344 669.987 417.344C674.644 417.344 680.326 422.016 689.737 429.74C698.92 437.276 711.493 447.599 729.482 458.823L731.102 459.839L729.706 461.146C728.665 462.115 725.899 464.698 697.758 464.786C697.378 464.755 696.951 464.755 696.524 464.755Z" fill="black"/>
<path d="M660.909 522.599C655.956 522.599 651.201 520.422 647.206 516.177L649.29 514.12C656.383 521.656 663.758 519.88 667.519 518.146C674.243 515.047 679.196 507.776 678.56 501.932C678.107 497.703 674.831 494.792 669.092 493.531L663.758 492.37L668.956 490.708C672.305 489.635 674.831 486.422 675.42 482.516C675.904 479.281 674.889 476.375 672.79 474.922C669.779 472.865 664.727 473.63 658.545 477.109L656.915 474.698C661.732 470.823 662.201 465.99 661.748 462.625C660.852 456.063 656.133 450.599 652.081 449.099C647.248 447.323 637.701 448.76 633.118 455.135C630.227 459.115 629.654 464.375 631.399 470.776L632.034 473.099L629.68 472.599C620.576 470.646 613.805 471.646 610.602 475.422C608.295 478.135 607.961 482.177 609.665 486.479C612.118 492.677 618.987 499.021 628.373 498.359L637.29 497.714L629.05 501.167C625.571 502.62 623.555 504.839 623.394 507.422C623.232 509.964 624.862 512.609 627.524 514.151C630.769 516.016 634.586 515.781 638.008 513.49L639.639 515.927C635.336 518.807 630.253 519.099 626.071 516.693C622.441 514.604 620.253 510.906 620.472 507.25C620.576 505.719 621.165 503.281 623.644 501.078C615.347 499.745 609.326 493.589 606.946 487.568C604.862 482.292 605.389 477.052 608.383 473.542C610.998 470.453 616.524 467.328 628.066 469.323C626.816 463.068 627.743 457.62 630.769 453.448C636.368 445.677 647.529 444.328 653.107 446.38C658.748 448.469 663.711 455.281 664.67 462.26C665.139 465.755 664.566 469.031 663.04 471.896C668.722 470 672.305 471.057 674.467 472.542C677.493 474.625 678.972 478.62 678.326 482.969C677.8 486.583 675.92 489.755 673.248 491.75C679.68 494.292 681.191 498.875 681.487 501.635C682.264 508.745 676.67 517.177 668.753 520.818C666.123 522.01 663.493 522.599 660.909 522.599Z" fill="black"/>
<path d="M109.284 496.979C82.2583 496.979 62.7375 495.615 58.2427 489.771L56.8208 487.917L59.0968 487.448C70.7896 485.026 86.6802 478.563 106.331 468.224C108.946 466.859 111.753 465.359 114.894 463.609C120.566 460.484 126.409 457.135 132.269 453.651C143.519 446.953 155.357 439.521 167.446 431.578C174.394 427.026 181.165 422.458 187.612 418.021C191.623 415.26 195.576 412.5 199.685 409.589C199.847 409.49 199.909 409.443 199.967 409.401L200.128 409.281L201.79 411.693L201.67 411.776C201.54 411.865 201.404 411.953 201.274 412.042C197.248 414.891 193.3 417.667 189.274 420.427C182.81 424.88 176.008 429.464 169.066 434.031C156.946 442.005 145.076 449.469 133.784 456.177C127.909 459.677 122.034 463.036 116.336 466.182C113.159 467.927 110.342 469.458 107.711 470.823C89.4406 480.427 74.326 486.76 62.7271 489.635C72.9302 494.865 109.534 494.234 134.472 493.807C147.722 493.573 159.149 493.385 165.347 493.927L165.227 496.849C159.045 496.307 147.68 496.51 134.519 496.729C125.602 496.88 117.128 496.979 109.284 496.979Z" fill="black"/>
<path d="M621.441 448.922H618.519V448.745L618.43 431.208L621.352 431.198L621.441 448.922Z" fill="black"/>
<path d="M600.967 438.292L599.56 435.719C602.967 433.854 610.191 426.818 610.263 426.76L612.305 428.859C612.013 429.156 604.727 436.219 600.967 438.292Z" fill="black"/>
<path d="M612.763 443.943H609.842V428.359L599.383 416.786L610.586 419.943L622.956 398.224L620.31 420.578L632.472 415.526L621.664 431.182C623.836 433.927 626.805 435.146 629.92 434.542C632.795 433.984 635.159 431.974 635.675 429.641C636.128 427.552 635.045 425.526 632.545 423.766L628.977 421.25L633.342 421.12C636.586 421.016 639.727 418.151 641.019 415.526C641.43 414.688 642.284 412.557 641.211 411.073C640.524 410.12 638.42 408.635 632.123 409.5L625.248 410.458L631.164 406.813C633.456 405.406 634.56 402.745 634.086 399.703C633.602 396.531 631.534 393.875 629.034 393.229C626.055 392.464 622.576 394.448 619.227 398.807L617.284 401.349L616.638 398.224C615.878 394.505 613.628 391.995 610.326 391.156C606.211 390.115 601.305 391.818 598.399 395.286C595.446 398.807 595.066 403.495 597.326 408.49L598.253 410.557H595.987C593.534 410.557 590.013 412.573 588.352 415.948C587.076 418.547 586.472 422.854 590.862 428.521L588.545 430.313C582.946 423.089 584.373 417.406 585.722 414.672C587.529 410.984 590.951 408.677 593.93 407.917C591.404 400.703 594.17 395.781 596.149 393.417C599.748 389.115 605.873 387.031 611.029 388.323C614.597 389.219 617.243 391.526 618.664 394.932C623.456 389.807 627.581 389.849 629.758 390.406C633.414 391.349 636.305 394.901 636.967 399.281C637.362 401.906 636.894 404.359 635.675 406.328C639.477 406.344 642.123 407.37 643.576 409.37C644.987 411.323 645.019 414.042 643.649 416.818C642.342 419.474 639.685 422.193 636.529 423.411C638.92 426.115 638.878 428.771 638.539 430.286C637.789 433.781 634.545 436.661 630.477 437.438C625.92 438.302 621.513 436.292 618.654 432.031L618.092 431.208L624.409 422.057L616.8 425.219L618.342 412.234L611.982 423.396L608.326 422.37L612.732 427.245V443.943H612.763Z" fill="black"/>
<path d="M436.04 520.115C431.519 520.115 426.816 517.984 424.055 514.604C418.784 508.156 418.446 498.995 418.196 492.313C417.592 476.875 417.003 461.453 416.404 446.016L416.284 443.031C416.081 437.599 415.831 430.859 412.425 425.891C410.618 423.266 407.43 421.323 404.3 420.927C402.717 420.74 400.409 420.839 398.514 422.516C397.779 423.161 397.06 424.016 396.31 424.911C394.31 427.276 391.831 430.214 388.29 429.094C386.967 428.682 385.941 427.786 385.336 426.542C383.795 423.339 385.383 418.698 385.899 417.359C388.274 411.234 391.128 402.188 388.336 394.344C386.925 390.38 383.399 386.854 379.362 385.354C376.336 384.24 373.336 384.401 370.915 385.797C364.675 389.38 364.774 397.401 364.878 405.901C364.925 408.901 364.951 412 364.685 414.865C363.748 424.896 358.211 433.531 352.852 441.885C351.586 443.854 350.336 445.807 349.133 447.792C342.805 458.292 338.118 469.646 335.211 481.573C334.915 482.792 334.639 484.026 334.342 485.276C332.847 491.839 331.305 498.625 327.206 504.177C324.18 508.276 319.29 511.271 314.441 511.99C310.727 512.536 307.331 511.745 304.618 509.703C296.701 503.766 298.826 491.693 303.071 483.177C306.112 477.063 309.873 471.276 313.503 465.667C316.967 460.307 320.55 454.771 323.461 449.042C336.123 424.026 336.253 416.406 335.196 414.099C334.93 413.526 334.566 413.203 333.977 413.042C331.508 412.411 328.102 417.698 325.102 422.37C321.477 428.01 317.717 433.854 313.045 434.781C311.196 435.146 309.357 434.719 307.597 433.484C305.701 432.167 304.571 430.521 304.248 428.609C303.441 423.927 307.378 418.448 312.357 411.484C316.102 406.255 320.362 400.323 323.3 393.698C327.159 385.016 326.003 370.74 323.68 363.766C322.961 361.635 322.05 360.344 320.904 359.797C320.04 359.385 319.185 359.375 318.305 359.755C315.852 360.797 313.649 364.542 312.545 367.802C301.279 401.146 284.274 431.844 261.993 459.057C259.935 461.583 257.628 464.094 254.326 464.698C251.727 465.167 249.3 464.375 247.305 462.406C244.264 459.38 242.665 453.755 243.498 449.026C245.29 438.818 252.607 429.505 265.852 420.578L266.279 420.281C270.04 417.755 273.92 415.141 275.196 411.193C275.316 410.807 275.284 410.677 275.284 410.677C275.154 410.469 274.227 410.161 273.685 409.974C271.435 409.208 267.691 407.932 268.102 402.172C268.368 398.307 272.154 394.391 276.149 390.229C279.883 386.354 283.758 382.328 283.566 379.349C283.508 378.38 282.982 377.51 281.967 376.688C277.003 372.708 270.071 379.365 262.727 386.411C258.92 390.068 254.987 393.844 251.243 396.063C244.514 400.057 237.566 404.182 231.925 409.823C230.779 410.969 229.649 412.219 228.56 413.422C225.961 416.302 223.274 419.281 219.868 421.443C214.784 424.63 207.31 425.51 202.816 421C200.774 418.958 199.248 414.875 199.024 410.88C198.821 407.021 199.597 397.589 211.435 393.229C239.081 378.542 285.258 343.057 348.446 257.411C349.368 256.161 350.102 255.161 350.633 254.443C353.685 250.375 357.05 247.833 360.602 246.88C366.831 245.203 373.133 248.703 377.831 256.281C380.534 251.729 386.159 247.292 392.17 246.661C396.383 246.219 400.175 247.745 403.097 250.995C404.977 245.146 411.732 239.682 417.727 238.625C422.118 237.859 425.831 239.328 428.227 242.766C493.706 337.031 520.727 363.63 553.29 384.635C563.102 390.964 567.92 397.927 567.644 405.344C567.581 406.521 567.451 407.563 567.217 408.547C566.217 412.953 563.586 416.406 559.784 418.286C555.347 420.49 549.753 420.255 544.055 417.651C528.336 410.484 523.139 402.995 513.722 389.411C512.857 388.146 512.019 386.87 511.17 385.589C508.331 381.271 505.409 376.823 501.519 373.516C500.961 373.031 500.357 372.516 499.753 371.958C496.566 369.125 492.633 365.599 489.253 366.068C487.607 366.307 486.139 367.495 484.758 369.714C480.31 376.849 498.847 405.755 520.758 421.281C524.477 423.927 528.956 426.802 533.685 429.859C553.086 442.385 575.086 456.578 569.654 468.734C568.128 471.51 565.691 473.229 562.545 473.833C556.524 474.995 549.534 471.953 545.258 468.443C544.17 467.547 543.086 466.609 541.982 465.635C536.665 461.01 531.17 456.224 524.8 457C522.196 457.323 519.555 458.453 516.998 459.542C512.56 461.422 507.967 463.375 503.191 461.469C491.576 456.839 486.623 447.427 484.758 443.885C484.571 443.531 484.42 443.24 484.305 443.047C475.3 427.906 473.185 419.417 471.144 411.219C469.06 402.849 467.107 394.948 458.305 380.188C454.769 374.234 437.362 353.792 431.956 349.708C430.149 348.344 427.508 346.844 425.097 347.578C423.862 347.948 422.998 348.693 422.456 349.839C420.899 353.115 422.232 358.844 423.998 363.104C431.222 380.521 433.618 399.427 435.951 417.714C439.55 446.177 443.149 474.641 446.764 503.12C447.191 506.542 447.774 511.214 445.602 515.047C443.93 517.984 440.93 519.776 437.17 520.083C436.805 520.099 436.42 520.115 436.04 520.115ZM403.185 417.932C403.67 417.932 404.17 417.964 404.67 418.021C408.665 418.521 412.555 420.901 414.847 424.234C418.722 429.891 418.987 437.115 419.206 442.917L419.326 445.896C419.915 461.333 420.514 476.755 421.118 492.193C421.425 500.328 422.014 507.5 426.316 512.755C428.727 515.708 432.998 517.484 436.951 517.161C439.727 516.927 441.899 515.661 443.092 513.594C444.665 510.833 444.383 507.38 443.883 503.49C440.269 475.021 436.67 446.557 433.076 418.078C430.769 399.984 428.404 381.286 421.321 364.219C420.352 361.87 417.373 353.792 419.842 348.578C420.737 346.667 422.232 345.391 424.29 344.771C427.123 343.922 430.415 344.818 433.764 347.385C439.493 351.719 457.149 372.432 460.862 378.703C469.883 393.844 471.982 402.318 474.024 410.531C476.107 418.901 478.06 426.802 486.857 441.578C486.993 441.813 487.17 442.135 487.389 442.547C489.107 445.823 493.706 454.547 504.321 458.781C507.993 460.25 511.842 458.604 515.909 456.885C518.659 455.724 521.493 454.521 524.487 454.135C532.144 453.198 538.43 458.646 543.967 463.479C545.05 464.417 546.107 465.344 547.18 466.224C551.602 469.87 557.727 471.823 562.06 471C564.352 470.557 566.04 469.37 567.097 467.474C571.461 457.708 549.665 443.651 532.154 432.354C527.399 429.286 522.904 426.38 519.128 423.703C510.05 417.271 499.18 406.141 491.456 395.328C486.258 388.073 478.165 374.896 482.336 368.198C484.17 365.25 486.373 363.573 488.899 363.219C493.586 362.563 498.123 366.583 501.753 369.828C502.357 370.359 502.93 370.875 503.472 371.344C507.685 374.911 510.727 379.552 513.68 384.047C514.519 385.313 515.336 386.573 516.191 387.807C525.31 400.969 530.352 408.224 545.331 415.052C550.222 417.286 554.909 417.536 558.55 415.729C561.545 414.245 563.633 411.484 564.425 407.958V407.943C564.618 407.135 564.732 406.271 564.764 405.286C565.014 398.984 560.633 392.875 551.748 387.146C518.847 365.922 491.618 339.161 425.862 244.484C423.691 241.344 420.529 241.151 418.269 241.547C411.732 242.693 404.977 249.745 405.607 254.781L406.503 262.068L402.878 255.677C400.362 251.255 396.779 249.156 392.519 249.599C386.529 250.229 380.8 255.562 379.404 259.953L378.331 263.328L376.717 260.172C372.592 252.167 366.878 248.276 361.415 249.729C358.503 250.51 355.685 252.682 353.024 256.224C352.498 256.927 351.764 257.927 350.852 259.161C287.284 345.333 240.68 381.068 212.79 395.87L212.597 395.958C202.873 399.516 201.8 406.74 202.008 410.75C202.211 414.422 203.639 417.651 204.946 418.974C208.31 422.354 214.373 421.516 218.357 419.005C221.409 417.068 223.862 414.365 226.446 411.5C227.566 410.266 228.711 408.99 229.915 407.797C235.805 401.906 242.925 397.677 249.8 393.594C253.253 391.536 257.071 387.88 260.758 384.344C268.691 376.719 276.883 368.844 283.862 374.458C285.534 375.792 286.43 377.396 286.55 379.203C286.826 383.474 282.701 387.766 278.326 392.286C274.857 395.885 271.274 399.604 271.081 402.406C270.831 405.917 272.54 406.505 274.696 407.24C276.253 407.771 279.133 408.755 278.045 412.13C276.446 417.052 271.951 420.078 267.982 422.75L267.56 423.031C254.998 431.49 248.081 440.172 246.435 449.557C245.764 453.359 247.055 458 249.42 460.349C250.727 461.641 252.211 462.141 253.842 461.849C256.175 461.422 258.055 459.323 259.774 457.224C281.836 430.286 298.665 399.896 309.816 366.891C311.076 363.13 313.691 358.578 317.201 357.094C318.847 356.391 320.581 356.438 322.196 357.198C324.107 358.094 325.514 359.958 326.498 362.885C328.878 370.021 330.362 385.151 326.014 394.932C322.961 401.833 318.612 407.885 314.779 413.234C310.373 419.37 306.571 424.688 307.17 428.156C307.362 429.302 308.066 430.271 309.316 431.135C310.415 431.901 311.461 432.167 312.519 431.958C315.982 431.271 319.54 425.729 322.696 420.839C326.571 414.802 330.243 409.089 334.753 410.266C336.196 410.63 337.279 411.557 337.915 412.938C340.232 418.052 336.472 429.948 326.118 450.422C323.139 456.297 319.508 461.906 315.998 467.328C312.415 472.865 308.711 478.594 305.748 484.557C302.003 492.078 299.946 502.578 306.42 507.438C309.05 509.406 312.034 509.464 314.076 509.172C318.185 508.568 322.331 506.016 324.915 502.521C328.644 497.464 330.128 490.974 331.55 484.703C331.831 483.453 332.123 482.203 332.42 480.958C335.389 468.75 340.191 457.12 346.68 446.354C347.883 444.354 349.165 442.375 350.425 440.391C355.597 432.328 360.941 424 361.81 414.672C362.06 411.953 362.029 408.943 361.987 406.021C361.868 397.047 361.748 387.776 369.493 383.344C372.68 381.505 376.555 381.271 380.404 382.698C385.295 384.505 389.394 388.615 391.128 393.448C394.237 402.219 391.201 411.953 388.659 418.505C387.586 421.266 387.336 423.969 388.014 425.365C388.264 425.891 388.644 426.219 389.201 426.391C390.774 426.891 392.097 425.484 394.092 423.115C394.883 422.177 395.696 421.208 396.592 420.417C398.368 418.755 400.675 417.932 403.185 417.932Z" fill="black"/>
<path d="M631.43 455.667C631.342 455.635 629.154 454.812 625.321 453.036C623.336 452.094 621.31 451.099 619.31 450.052C616.524 448.615 613.586 446.984 610.576 445.224C606.915 443.078 603.185 440.729 599.472 438.229C595.649 435.646 592.185 433.151 588.852 430.578C580.378 424.099 572.284 416.932 564.795 409.25L564.118 408.562L566.185 406.49L566.878 407.198C574.279 414.776 582.269 421.854 590.644 428.26C593.93 430.786 597.368 433.25 601.128 435.807C604.784 438.276 608.472 440.594 612.071 442.708C615.04 444.443 617.93 446.047 620.68 447.469C622.649 448.5 624.628 449.479 626.581 450.406C630.284 452.141 632.446 452.932 632.472 452.948L631.43 455.667Z" fill="black"/>
<path d="M350.972 332.818C348.81 332.818 346.649 332.245 344.758 330.922C336.826 325.385 340.659 313.255 342.67 308.302L345.389 309.406C343.639 313.708 340.232 324.198 346.43 328.531C350.191 331.156 355.566 329.63 358.711 326.854C362.264 323.724 364.248 318.995 365.847 314.354L366.29 313.104L367.581 313.417C371.18 314.281 375.206 312.813 377.362 309.859C379.55 306.906 379.774 302.635 377.894 299.464L380.404 297.979C382.857 302.135 382.576 307.745 379.701 311.609C377.112 315.135 372.529 317.042 368.185 316.5C366.508 321.141 364.378 325.755 360.633 329.057C358.107 331.26 354.524 332.818 350.972 332.818Z" fill="black"/>
<path d="M435.935 320.276C432.06 320.276 427.946 318.25 424.967 314.75C421.836 311.068 420.191 306.422 418.737 302.328L421.498 301.354C422.925 305.411 424.409 309.599 427.185 312.859C430.06 316.25 434.144 317.938 437.581 317.177C439.461 316.75 441.237 315.281 442.133 313.401C442.857 311.875 442.915 310.333 442.284 309.052L444.909 307.76C445.956 309.859 445.909 312.313 444.795 314.661C443.503 317.349 440.993 319.406 438.243 320.026C437.482 320.188 436.717 320.276 435.935 320.276Z" fill="black"/>
<path d="M360.592 249.672C354.154 247.703 346.123 238.771 344.373 227.802C342.993 219.089 345.93 211.161 352.685 205.125C328.055 203.021 311.389 196.016 303.118 184.25C297.42 176.146 296.04 165.964 298.977 153.964C293.321 155.422 284.024 156.182 277.165 151.516C271.951 147.974 269.04 142.01 268.514 133.786C255.045 137.047 239.8 132.552 228.3 121.828C216.003 110.359 210.732 94.1719 214.227 78.5313C218.295 60.3333 234.362 45.1615 253.326 41.6354C269.451 38.625 284.378 44.6302 294.758 58.1563C297.139 46.8646 306.112 36.2135 317.264 31.9844C328.935 27.5521 341.274 30.5 352.191 40.2969C369.404 11.4948 400.04 4.59375 423.128 10.6563C446.425 16.7813 461.977 34.9219 463.8 57.526C472.717 45.849 486.201 40.3281 500.649 42.6615C516.118 45.1615 528.675 55.9271 531.894 69.4688C534.977 82.3802 529.701 91.2083 524.722 96.3333C515.987 105.349 501.237 110.021 488.227 108.052C489.139 118.318 484.967 138.469 465.826 145.563C467.206 154.464 464.826 164.146 459.352 171.708C455.269 177.318 447.748 184.266 434.732 186.484C440.503 195.313 442.269 205.052 439.816 214.802C436.555 227.771 426.831 237.526 418.649 241.432L418.342 241.578L417.034 238.964L417.373 238.802C424.717 235.307 433.972 226.083 436.982 214.099C439.389 204.49 437.331 194.854 431.003 186.25L429.519 184.224L432.014 183.927C445.456 182.328 453.003 175.469 456.982 169.99C462.258 162.734 464.415 153.349 462.743 144.891L462.493 143.625L463.711 143.214C483.498 136.661 486.67 115.281 485.081 106.542L484.685 104.365L486.8 104.807C499.342 107.406 514.076 103.073 522.607 94.2604C527.076 89.6615 531.805 81.7344 529.029 70.1146C526.076 57.7188 514.472 47.8333 500.165 45.526C485.477 43.1615 471.862 49.5833 463.727 62.724L461.024 67.1042V61.9635C461.024 38.6823 445.852 19.6458 422.368 13.4792C399.951 7.58855 370.05 14.5365 353.79 43.3229L352.862 44.9688L351.498 43.6615C341.128 33.6875 329.336 30.5156 318.29 34.7188C306.935 39.0365 298.034 50.5365 297.123 62.0781L296.784 66.2969L294.435 62.7865C284.701 48.1875 269.894 41.5313 253.842 44.526C236.024 47.8333 220.894 62.0781 217.076 79.1771C213.816 93.7917 218.764 108.948 230.295 119.698C241.56 130.203 256.571 134.344 269.482 130.51L271.321 129.969L271.362 131.891C271.524 140.089 274.034 145.875 278.81 149.12C286.17 154.115 297.008 151.76 300.576 150.443L303.31 149.427L302.498 152.219C298.946 164.469 299.961 174.693 305.524 182.594C311.123 190.552 324.534 200.484 356.639 202.495L360.795 202.76L357.389 205.151C347.237 212.292 346.284 221.161 347.269 227.359C348.779 236.906 355.831 245.177 361.441 246.896L360.592 249.672Z" fill="black"/>
<path d="M331.8 161.177C316.821 161.177 309.316 153.922 306.097 149.443C301.633 143.198 300.456 135.313 303.013 128.896L305.732 129.979C303.529 135.505 304.586 142.302 308.477 147.755C311.503 151.984 318.878 158.958 334.107 158.208L334.253 161.135C333.42 161.146 332.597 161.177 331.8 161.177Z" fill="black"/>
<path d="M420.706 145.917L419.56 143.229C433.498 137.313 446.925 120.375 446.144 109.667L446.045 108.172L447.539 108.099C455.414 107.714 462.3 104.589 466.941 99.2708C470.368 95.3333 472.201 90.5573 471.836 86.5052L474.743 86.2396C475.185 91.0729 473.081 96.6719 469.144 101.193C464.269 106.792 457.191 110.214 449.097 110.932C448.789 122.844 435.263 139.734 420.706 145.917Z" fill="black"/>
<path d="M372.149 211.161C364.336 210.073 360.941 206.547 359.472 203.771C357.211 199.484 358.107 194.521 359.696 191.286L362.31 192.578C361.029 195.151 360.295 199.089 362.045 202.391C363.691 205.505 367.316 207.531 372.529 208.25L372.149 211.161Z" fill="black"/>
<mask id="mask2_11_566" style="mask-type:luminance" maskUnits="userSpaceOnUse" x="531" y="-123" width="297" height="132">
<path d="M531.862 -123H827.232V9H531.862V-123Z" fill="white"/>
</mask>
<g mask="url(#mask2_11_566)">
<path d="M572.086 328.391C566.013 323.135 557.144 320.594 549.321 318.339C541.034 315.953 534.498 314.073 532.633 309.51C531.737 307.339 532.086 304.833 533.644 302.057C537.331 295.5 550.274 291.094 562.769 286.844C570.67 284.146 582.602 280.089 582.743 277.411C582.758 276.885 581.79 275.568 578.081 273.802C541.326 273.667 537.68 270.271 536.321 268.99L534.477 267.26L536.612 265.922C560.362 251.094 576.998 237.453 589.123 227.495C601.566 217.292 609.076 211.12 615.227 211.12C622.31 211.12 634.149 221.542 647.852 233.589C656.795 241.453 665.998 249.542 673.623 254.339C675.545 253.427 677.482 252.453 679.425 251.443L679.503 234.464C676.05 237.318 671.8 238.5 667.451 237.667C662.076 236.635 657.805 232.833 656.795 228.214C656.368 226.219 656.29 222.703 659.456 219.135C655.284 217.542 651.753 213.932 650.045 210.422C648.237 206.75 648.279 203.161 650.138 200.578C652.06 197.922 655.555 196.583 660.581 196.562C658.972 193.964 658.347 190.724 658.873 187.25C659.748 181.484 663.571 176.766 668.404 175.526C671.274 174.786 676.727 174.75 683.055 181.505C684.935 177 688.43 173.953 693.144 172.771C699.977 171.062 708.05 173.818 712.805 179.505C715.425 182.646 719.071 189.13 715.737 198.661C719.675 199.667 724.196 202.714 726.581 207.589C727.784 210.052 729.05 214.318 727.399 219.792C735.571 213.115 743.409 205.974 750.821 198.427C750.649 197.437 750.513 196.427 750.472 195.302C750.102 185.5 756.472 176.281 769.435 167.937C812.456 140.167 848.164 105.042 934.68 -19.5104C936.487 -22.1146 938.894 -23.8386 941.706 -24.6719C932.43 -31.0573 922.998 -42.3125 919.43 -56.5208C916.185 -69.4063 918.513 -82.2708 926.144 -93.9375C908.946 -96.8646 899.013 -106.047 893.618 -113.458C886.357 -123.432 883.217 -136.224 885.06 -148.005C859.774 -157.375 854.258 -184.005 855.461 -197.568C838.269 -194.99 818.784 -201.156 807.237 -213.057C800.68 -219.828 793.691 -231.49 797.769 -248.552C802.034 -266.422 818.628 -280.667 839.045 -283.969C858.144 -287.052 875.956 -279.755 887.737 -264.328C890.123 -294.193 910.675 -318.161 941.472 -326.255C971.982 -334.271 1012.45 -325.146 1035.21 -287.094C1049.61 -300.036 1065.93 -303.938 1081.36 -298.078C1096.09 -292.469 1107.95 -278.417 1111.09 -263.495C1124.81 -281.365 1144.53 -289.286 1165.84 -285.328C1190.89 -280.651 1212.12 -260.599 1217.5 -236.578C1222.1 -215.906 1215.15 -194.521 1198.9 -179.365C1183.71 -165.198 1163.57 -159.26 1145.77 -163.568C1145.07 -152.698 1141.25 -144.823 1134.34 -140.146C1125.25 -133.974 1112.97 -134.979 1105.52 -136.901C1109.4 -121.026 1107.58 -107.578 1100.04 -96.8854C1089.12 -81.3438 1067.09 -72.0833 1034.55 -69.3073C1043.48 -61.3333 1047.36 -50.8542 1045.53 -39.3438C1043.59 -27.1563 1035.79 -16.8906 1028.3 -12.3906C1031.42 -10.625 1034.41 -7.90626 1037.21 -4.1823C1037.92 -3.22918 1038.89 -1.91147 1040.1 -0.260427C1123.57 112.901 1184.6 159.786 1221.12 179.193C1235.74 184.589 1237.6 195.828 1237.54 201.432C1242.24 204.771 1246.82 207.953 1251.42 211.135C1255.19 208.927 1276.98 196.37 1287.77 195.417C1294.17 194.833 1299.45 197.516 1305.02 200.349C1309.85 202.792 1314.84 205.333 1320.89 205.781C1326.37 206.187 1332.28 199.51 1338.59 192.448C1345.93 184.219 1354.24 174.906 1364.17 174.714C1364.23 174.714 1364.29 174.714 1364.35 174.714C1376.24 174.714 1407.12 196.797 1434.37 216.302C1449 226.781 1461.65 235.823 1468.33 239.24C1486.86 240.422 1501.49 247.042 1502.42 254.766C1502.72 257.115 1501.92 261.437 1493.42 264.042C1487.93 265.729 1479.68 267.167 1470.97 268.698C1455.81 271.354 1436.95 274.656 1433.82 279.568C1433.49 280.068 1433.41 280.536 1433.57 281.062C1434.73 285.312 1450.14 291.115 1462.52 295.792C1481.04 302.776 1497.01 308.792 1496.8 316.729C1496.29 335.458 1441.32 338.292 1417.7 338.661C1395.22 339.01 1391.98 344.5 1391.63 346.849C1390.89 351.854 1399.28 359.521 1408.9 362.625C1432.75 370.292 1456.43 383.12 1455.58 394.531C1455.07 401.266 1447.06 405.807 1431.09 408.406C1391.85 414.849 1318.66 422.167 1284.99 423.896C1295.36 427.443 1300.83 432.182 1300.36 437.458C1299.57 446.328 1282.64 453.724 1250.06 459.427C1211.6 466.161 1155.32 469.792 1082.75 470.219C1077.61 470.255 1072.59 470.255 1067.64 470.255C1007.16 470.255 961.56 467.984 931.925 463.464C905.763 459.484 891.618 453.724 888.685 445.88C885.795 438.12 894.003 431.073 899.576 426.302C901.342 424.786 902.211 423.448 901.925 422.708C900.602 419.313 884.263 416.385 855.597 417.354C853.446 417.432 851.175 417.49 848.789 417.526C829.029 417.974 801.956 418.578 769.878 434.313C733.472 452.167 648.102 443.125 608.029 435.849C584.138 431.5 559.357 419.333 558.248 404.469C557.451 393.833 568.165 383.995 590.154 375.182C563.373 373.651 535.816 366.141 533.566 355.891C532.67 351.76 535.623 348.089 542.357 345.005C551.805 340.656 560.539 338.542 566.925 337.01C570.92 336.042 576.415 334.719 576.665 333.651C576.649 333.693 576.862 332.526 572.086 328.391ZM694.758 242.885C697.784 241.062 700.81 239.141 703.857 237.141C700.868 234.969 697.3 231.823 694.758 229.479V242.885Z" fill="black"/>
</g>
<path d="M610.748 247.88C591.524 247.88 532.654 247.703 528.472 245.615C526.576 244.677 525.899 242.901 526.706 240.99C528.805 236.026 541.217 230.182 554.378 233.427C553.368 228.844 555.467 223.734 560.05 220.354C564.967 216.724 573.076 215.198 580.961 221.573C581.008 214.495 584.868 208 591.055 205.297C596.607 202.875 602.628 203.963 608.123 208.135C607.149 204.318 607.399 200.542 608.883 197.047C611.732 190.365 618.899 185.646 628.04 184.443C633.472 183.724 651.8 182.182 659.732 192.255C663.951 197.62 664.477 205.224 661.29 214.875C663.993 214.583 667.123 215.333 669.191 216.963C670.868 218.281 671.805 220.047 671.951 222.073C675.581 220.604 680.795 220.531 683.409 222.792C685.128 224.276 686.362 227.021 683.602 231.984C694.691 230.844 703.972 235.969 705.222 240.635C705.691 242.417 705.045 244.693 701.8 245.703C697.29 247.13 653.357 247.833 614.435 247.88C613.451 247.88 612.217 247.88 610.748 247.88ZM546.638 235.396C537.706 235.396 530.54 239.406 529.394 242.12C529.217 242.547 529.206 242.724 529.763 243C535.915 245.588 692.675 245.516 700.904 242.917C702.633 242.37 702.461 241.682 702.388 241.385C701.592 238.391 692.415 232.896 680.883 235.38L677.081 236.203L679.399 233.088C681.06 230.844 683.555 226.802 681.487 225.026C679.31 223.146 673.159 223.969 671.217 225.891L667.295 229.797L668.779 224.453C669.399 222.234 668.93 220.484 667.373 219.255C665.154 217.505 661.467 217.328 659.644 218.344L656.118 220.297L657.576 216.536C661.394 206.62 661.347 199.057 657.425 194.078C650.451 185.224 633.456 186.693 628.42 187.365C620.31 188.437 614.008 192.49 611.571 198.219C609.399 203.302 610.472 209.219 614.581 214.891C614.628 214.932 614.654 214.995 614.701 215.036L612.336 216.755C612.29 216.698 612.263 216.651 612.217 216.594C606.18 208.354 598.722 205.135 592.227 207.974C586.149 210.63 582.784 217.786 584.222 224.995L585.237 230.094L581.711 226.286C574.295 218.271 566.347 219.338 561.795 222.719C558.034 225.495 555.555 230.594 558.097 234.953L560.076 238.375L556.347 237.068C552.998 235.88 549.722 235.396 546.638 235.396Z" fill="black"/>
<path d="M680.576 233.943C696.597 230.49 709.571 241.724 701.342 244.307C693.118 246.912 535.17 247.333 529.118 244.307C523.066 241.287 539.498 229.594 556.8 235.656C550.763 225.245 568.347 209.677 582.769 225.276C579.54 209.073 598.545 195.255 613.498 215.891C603.128 201.745 611.763 188.073 628.211 185.896C644.665 183.724 670.618 186.766 658.941 217.063C662.847 214.906 672.352 217.063 670.191 224.849C674.097 220.943 690.534 220.5 680.576 233.943Z" fill="#CADBEA"/>
</svg>
